# 3ds Max Wavefront OBJ Exporter v0.97b - (c)2007 guruware
# File Created: 23.10.2016 19:03:43

mtllib sapin_unwrap.mtl

#
# object CL_Sapin1_SeamsColor
#

v  -1.6933 -0.5688 -4.4475
v  0.8744 -0.5688 -0.0000
v  -0.4279 -0.5688 4.5077
v  -6.8288 -0.5688 4.4475
v  -10.9836 -0.5688 1.4502
v  -8.0901 -0.5688 -5.5825
v  -1.4924 9.3576 -3.4436
v  -1.3345 9.3576 5.1137
v  -6.5423 9.3576 3.3355
v  -7.9812 9.3576 0.4861
v  0.0004 9.3576 -0.7695
v  16.4393 9.4112 0.0000
v  6.0891 14.1824 -17.9270
v  -14.6113 9.4112 -17.9270
v  -20.4413 0.8515 0.0000
v  -14.6113 5.8857 17.9270
v  6.0891 13.1424 17.9270
v  -4.2611 71.5399 0.0000
v  -0.0716 19.1697 -7.2564
v  -0.7930 29.4111 -6.0070
v  -1.5143 39.6525 -4.7575
v  -0.5546 53.0414 -6.4199
v  4.4975 46.8011 0.0000
v  7.0053 38.9728 0.0000
v  9.9736 24.1001 5.9378
v  4.1179 19.1697 0.0000
v  -8.4506 19.1697 -7.2564
v  -7.7292 29.4111 -6.0070
v  -7.0078 39.6525 -4.7575
v  -7.9676 49.2456 -10.0030
v  -12.6401 19.1697 0.0000
v  -11.1973 29.4111 0.0000
v  -9.7546 39.6525 0.0000
v  -11.6741 49.2456 0.0000
v  -8.4506 19.1697 7.2564
v  -7.7292 29.4111 6.0070
v  -7.0078 39.6525 4.7575
v  -7.9676 53.0264 6.4199
v  -0.0716 19.1697 7.2564
v  -3.9790 28.8410 14.5159
v  1.3721 35.7021 9.7570
v  -0.7826 49.2456 6.4199
v  5.2912 18.4909 -16.5450
v  7.1054 32.3724 -15.0794
v  1.3721 41.9243 -7.7264
v  -2.2357 49.8940 -3.5080
v  -0.2103 49.8940 0.0000
v  1.2324 39.6525 0.0000
v  2.6752 29.4111 0.0000
v  14.8435 18.4909 0.0000
v  -13.8134 18.4909 -16.5450
v  -11.3784 28.8410 -12.3276
v  -5.9679 38.9728 -7.3745
v  -6.2864 49.8940 -3.5080
v  -23.3656 18.4909 0.0000
v  -18.4957 25.7339 0.0000
v  -17.8962 36.4613 -2.1785
v  -8.3118 49.8940 0.0000
v  -13.8133 18.4909 16.5450
v  -9.1695 28.8410 12.3276
v  -9.8943 38.9728 9.7570
v  -6.2864 49.8940 3.5080
v  5.2912 18.4909 16.5450
v  -0.7930 29.4111 6.0070
v  -1.5143 39.6525 4.7575
v  -2.2357 49.8940 3.5080
v  -6.7612 9.3576 -4.4206
# 67 vertices

vn 0.0000 -1.0000 -0.0000
vn 0.0000 -1.0000 -0.0000
vn 0.0000 -1.0000 -0.0000
vn 0.0000 -1.0000 -0.0000
vn 0.0000 -1.0000 -0.0000
vn 0.0000 -1.0000 -0.0000
vn 0.0000 -1.0000 -0.0000
vn 0.0000 -1.0000 -0.0000
vn 0.0000 -1.0000 -0.0000
vn 0.0000 -1.0000 -0.0000
vn 0.0000 -1.0000 -0.0000
vn 0.0000 -1.0000 -0.0000
vn 0.8705 0.0373 -0.4908
vn 0.8725 0.0391 -0.4871
vn 0.8669 0.0342 -0.4973
vn 0.8656 0.0330 -0.4997
vn 0.9680 0.0839 0.2364
vn 0.9724 0.0753 0.2206
vn 0.9616 0.0953 0.2573
vn 0.9553 0.1055 0.2760
vn -0.2131 0.0525 0.9756
vn -0.3210 0.1146 0.9401
vn -0.1113 -0.0051 0.9938
vn -0.0094 -0.0618 0.9980
vn -0.7962 0.2517 0.5502
vn -0.8517 0.2994 0.4301
vn -0.6508 0.1498 0.7443
vn -0.5817 0.1071 0.8063
vn -0.9376 0.1887 -0.2919
vn -0.9585 0.1562 -0.2383
vn -0.9189 0.2130 -0.3319
vn -0.8987 0.2359 -0.3698
vn 0.1788 0.0939 -0.9794
vn 0.1815 0.0953 -0.9788
vn 0.1763 0.0927 -0.9800
vn 0.1740 0.0915 -0.9805
vn 0.8322 0.5451 -0.1013
vn 0.8304 0.2837 -0.4795
vn 0.8024 0.5968 0.0060
vn 0.7400 0.6542 0.1565
vn -0.1452 0.7041 -0.6951
vn 0.0000 0.8172 -0.5764
vn -0.1759 0.6749 -0.7166
vn -0.2301 0.6189 -0.7510
vn -0.7552 0.5389 -0.3731
vn -0.7094 0.5736 -0.4096
vn -0.7794 0.5183 -0.3519
vn -0.7981 0.5012 -0.3344
vn -0.7590 0.4737 0.4467
vn -0.7608 0.4778 0.4392
vn -0.7581 0.4718 0.4503
vn -0.7570 0.4695 0.4544
vn -0.0765 0.6077 0.7905
vn 0.0000 0.5736 0.8192
vn -0.2255 0.6609 0.7158
vn -0.2859 0.6772 0.6780
vn 0.6909 0.4386 0.5747
vn 0.8394 0.2461 0.4846
vn 0.6190 0.5070 0.5998
vn 0.5648 0.5517 0.6137
vn 0.8699 0.3080 -0.3852
vn 0.8699 0.3080 -0.3852
vn 0.8699 0.3080 -0.3852
vn 0.7588 0.5132 -0.4011
vn 0.7517 0.4966 -0.4340
vn 0.7633 0.5249 -0.3766
vn 0.7668 0.5349 -0.3547
vn 0.5581 0.8099 -0.1806
vn 0.5343 0.8411 -0.0846
vn 0.5582 0.8097 -0.1813
vn 0.5844 0.7379 -0.3374
vn 0.6232 0.6944 -0.3598
vn 0.6232 0.6944 -0.3598
vn 0.6232 0.6944 -0.3598
vn 0.6232 0.6944 -0.3598
vn 0.2491 0.3617 -0.8984
vn 0.2491 0.3617 -0.8984
vn 0.2491 0.3617 -0.8984
vn -0.0780 0.4068 -0.9102
vn 0.0000 0.4678 -0.8838
vn -0.1383 0.3562 -0.9241
vn -0.1749 0.3241 -0.9297
vn -0.1194 0.8271 -0.5493
vn -0.1787 0.7753 -0.6058
vn -0.1190 0.8274 -0.5489
vn -0.0000 0.9059 -0.4234
vn -0.0000 0.6944 -0.7196
vn -0.0000 0.6944 -0.7196
vn -0.0000 0.6944 -0.7196
vn -0.0000 0.6944 -0.7196
vn -0.8952 0.2977 -0.3317
vn -0.8952 0.2977 -0.3317
vn -0.8952 0.2977 -0.3317
vn -0.6850 0.3010 -0.6635
vn -0.8562 0.1500 -0.4943
vn -0.5234 0.3968 -0.7540
vn -0.4349 0.4379 -0.7868
vn -0.8473 0.5000 -0.1790
vn -0.9143 0.3894 -0.1114
vn -0.8034 0.5556 -0.2141
vn -0.5844 0.7379 -0.3374
vn -0.6232 0.6944 -0.3598
vn -0.6232 0.6944 -0.3598
vn -0.6232 0.6944 -0.3598
vn -0.6232 0.6944 -0.3598
vn -0.8922 0.2967 0.3404
vn -0.8922 0.2967 0.3404
vn -0.8922 0.2967 0.3404
vn -0.7657 0.4811 0.4269
vn -0.7630 0.4730 0.4405
vn -0.7674 0.4863 0.4180
vn -0.7684 0.4896 0.4121
vn -0.8532 0.4642 0.2380
vn -0.8527 0.5044 0.1357
vn -0.8468 0.4307 0.3120
vn -0.8125 0.3460 0.4691
vn -0.6232 0.6944 0.3598
vn -0.6232 0.6944 0.3598
vn -0.6232 0.6944 0.3598
vn -0.6232 0.6944 0.3598
vn 0.1556 0.2957 0.9425
vn 0.1556 0.2957 0.9425
vn 0.1556 0.2957 0.9425
vn 0.0537 0.4673 0.8825
vn 0.0000 0.4966 0.8680
vn 0.1024 0.4390 0.8926
vn 0.1237 0.4261 0.8962
vn -0.1731 0.7250 0.6667
vn -0.2680 0.7644 0.5865
vn -0.1596 0.7185 0.6770
vn 0.0000 0.6262 0.7796
vn 0.0000 0.6944 0.7196
vn 0.0000 0.6944 0.7196
vn 0.0000 0.6944 0.7196
vn 0.0000 0.6944 0.7196
vn 0.7910 0.2801 0.5439
vn 0.7910 0.2801 0.5439
vn 0.7910 0.2801 0.5439
vn 0.7552 0.4265 0.4978
vn 0.7926 0.4030 0.4576
vn 0.7164 0.4477 0.5351
vn 0.6943 0.4587 0.5546
vn 0.5507 0.8076 0.2110
vn 0.6094 0.7694 0.1917
vn 0.5477 0.8094 0.2119
vn 0.4259 0.8707 0.2459
vn 0.6232 0.6944 0.3598
vn 0.6232 0.6944 0.3598
vn 0.6232 0.6944 0.3598
vn 0.6232 0.6944 0.3598
vn -0.1201 -0.8476 -0.5169
vn 0.0554 -0.6938 -0.7180
vn -0.2950 -0.9229 -0.2474
vn -0.5234 -0.7967 0.3022
vn 0.1108 -0.9367 -0.3322
vn 0.1939 -0.8610 -0.4703
vn 0.0361 -0.9782 -0.2045
vn -0.1167 -0.9909 0.0674
vn -0.0631 -0.9973 0.0364
vn -0.0631 -0.9973 0.0364
vn -0.0631 -0.9973 0.0364
vn -0.0631 -0.9973 0.0364
vn -0.3041 -0.9416 -0.1446
vn -0.7324 -0.5337 0.4228
vn -0.1999 -0.9495 -0.2420
vn -0.0622 -0.9316 -0.3582
vn 0.3520 -0.8949 -0.2744
vn 0.4681 -0.8831 -0.0330
vn 0.3093 -0.8851 -0.3478
vn 0.0000 -0.6791 -0.7340
vn 0.2881 -0.9540 0.0833
vn 0.3622 -0.8570 0.3665
vn 0.1612 -0.9489 -0.2712
vn 0.0000 -0.7942 -0.6077
vn 0.0000 -0.9973 0.0729
vn 0.0000 -0.9973 0.0729
vn 0.0000 -0.9973 0.0729
vn 0.0000 -0.9973 0.0729
vn 0.1056 -0.9833 -0.1483
vn -0.0000 -0.9506 -0.3103
vn 0.1370 -0.9857 -0.0977
vn 0.1850 -0.9826 -0.0182
vn 0.1723 -0.9826 0.0696
vn 0.1889 -0.9795 0.0700
vn 0.1559 -0.9854 0.0692
vn 0.1183 -0.9906 0.0683
vn 0.3248 -0.9119 0.2508
vn 0.2984 -0.9242 0.2384
vn 0.3995 -0.8712 0.2854
vn 0.7426 -0.5146 0.4287
vn 0.0631 -0.9973 0.0364
vn 0.0631 -0.9973 0.0364
vn 0.0631 -0.9973 0.0364
vn 0.0631 -0.9973 0.0364
vn 0.2836 -0.9581 0.0401
vn 0.0778 -0.9960 0.0449
vn 0.3582 -0.9329 0.0379
vn 0.4497 -0.8925 0.0347
vn -0.2136 -0.8481 0.4848
vn -0.3083 -0.7312 0.6086
vn -0.0682 -0.9571 0.2816
vn 0.1882 -0.9761 -0.1087
vn 0.3057 -0.9512 -0.0423
vn 0.2674 -0.9633 0.0234
vn 0.3327 -0.9387 -0.0904
vn 0.4087 -0.8816 -0.2360
vn 0.0631 -0.9973 -0.0364
vn 0.0631 -0.9973 -0.0364
vn 0.0631 -0.9973 -0.0364
vn 0.0631 -0.9973 -0.0364
vn 0.3910 -0.9090 -0.1443
vn 0.4355 -0.8644 -0.2514
vn 0.3577 -0.9311 -0.0711
vn 0.3284 -0.9445 -0.0104
vn -0.3635 -0.8975 0.2498
vn -0.4654 -0.8844 0.0353
vn -0.2215 -0.8499 0.4782
vn 0.0000 -0.6808 0.7324
vn -0.1804 -0.8879 -0.4231
vn -0.2393 -0.8243 -0.5132
vn -0.1370 -0.9247 -0.3553
vn 0.0000 -0.9909 -0.1347
vn 0.0000 -0.9973 -0.0729
vn 0.0000 -0.9973 -0.0729
vn 0.0000 -0.9973 -0.0729
vn 0.0000 -0.9973 -0.0729
vn 0.0146 -0.9974 -0.0706
vn 0.0000 -0.9960 -0.0898
vn 0.0113 -0.9971 -0.0749
vn 0.0243 -0.9980 -0.0578
vn -0.4748 -0.8704 -0.1302
vn -0.5443 -0.8284 -0.1322
vn -0.4005 -0.9074 -0.1273
vn -0.2012 -0.9726 -0.1162
vn -0.2426 -0.9004 -0.3611
vn -0.1086 -0.9220 -0.3717
vn -0.3266 -0.8777 -0.3507
vn -0.5369 -0.7846 -0.3100
vn -0.0631 -0.9973 -0.0364
vn -0.0631 -0.9973 -0.0364
vn -0.0631 -0.9973 -0.0364
vn -0.0631 -0.9973 -0.0364
vn -0.4263 -0.8749 -0.2298
vn -0.3085 -0.9344 -0.1781
vn -0.4305 -0.8724 -0.2316
vn -0.4393 -0.8669 -0.2354
vn 0.0549 -0.9661 -0.2522
vn 0.0156 -0.9640 -0.2655
vn 0.1285 -0.9656 -0.2259
vn 0.2904 -0.9431 -0.1621
vn 0.0528 -0.9835 0.1732
vn 0.0730 -0.9672 0.2434
vn 0.0423 -0.9897 0.1366
vn 0.0032 -1.0000 0.0007
vn 0.2537 -0.9668 0.0311
vn 0.3305 -0.9429 -0.0416
vn 0.2015 -0.9763 0.0788
vn -0.1172 -0.9319 0.3432
vn 0.5161 -0.8562 0.0257
vn 0.5618 -0.8258 0.0492
vn 0.4283 -0.9035 -0.0170
vn 0.2181 -0.9697 -0.1101
vn 0.4837 -0.8606 -0.1591
vn 0.4467 -0.8551 -0.2630
vn 0.5054 -0.8584 -0.0878
vn 0.5547 -0.8205 0.1379
vn 0.1782 -0.9701 -0.1650
vn 0.2199 -0.9542 -0.2027
vn 0.1456 -0.9800 -0.1356
vn 0.0008 -1.0000 -0.0044
# 270 vertex normals

vt 0.6882 0.9275 0.0000
vt 0.7132 0.9181 0.0000
vt 0.7376 0.9195 0.0000
vt 0.7436 0.9625 0.0000
vt 0.7233 0.9980 0.0000
vt 0.6832 0.9597 0.0000
vt 0.6738 0.8771 0.0000
vt 0.7696 0.8776 0.0000
vt 0.8073 0.9118 0.0000
vt 0.6091 0.9425 0.0000
vt 0.8260 0.9320 0.0000
vt 0.7041 0.8738 0.0000
vt 0.7047 0.7685 0.0000
vt 0.6194 0.7617 0.0000
vt 0.5449 0.8170 0.0000
vt 0.4588 0.9160 0.0000
vt 0.9786 0.8601 0.0000
vt 0.8705 0.8045 0.0000
vt 0.7772 0.7626 0.0000
vt 0.8656 0.0020 0.0000
vt 0.6034 0.6764 0.0000
vt 0.6155 0.4791 0.0000
vt 0.6603 0.2986 0.0000
vt 0.7272 0.1099 0.0000
vt 0.9980 0.0998 0.0000
vt 0.7455 0.1663 0.0000
vt 0.7220 0.2820 0.0000
vt 0.7306 0.4434 0.0000
vt 0.6879 0.6696 0.0000
vt 0.5201 0.6905 0.0000
vt 0.5480 0.4699 0.0000
vt 0.9400 0.3141 0.0000
vt 0.6114 0.2880 0.0000
vt 0.9792 0.1748 0.0000
vt 0.6573 0.0984 0.0000
vt 0.9306 0.6793 0.0000
vt 0.4450 0.7036 0.0000
vt 0.9006 0.4910 0.0000
vt 0.4851 0.4601 0.0000
vt 0.8853 0.3419 0.0000
vt 0.5679 0.2663 0.0000
vt 0.8958 0.1882 0.0000
vt 0.8567 0.6733 0.0000
vt 0.8349 0.4876 0.0000
vt 0.8306 0.3431 0.0000
vt 0.8476 0.1658 0.0000
vt 0.7733 0.6696 0.0000
vt 0.8195 0.4483 0.0000
vt 0.7785 0.3033 0.0000
vt 0.7987 0.1758 0.0000
vt 0.6069 0.6040 0.0000
vt 0.6383 0.4082 0.0000
vt 0.6767 0.2559 0.0000
vt 0.7141 0.1627 0.0000
vt 0.7509 0.1852 0.0000
vt 0.7135 0.3172 0.0000
vt 0.6848 0.4872 0.0000
vt 0.6927 0.6028 0.0000
vt 0.5144 0.6079 0.0000
vt 0.5528 0.4066 0.0000
vt 0.9645 0.2943 0.0000
vt 0.6174 0.2562 0.0000
vt 0.9205 0.2088 0.0000
vt 0.6824 0.1502 0.0000
vt 0.9911 0.6036 0.0000
vt 0.3887 0.6053 0.0000
vt 0.9503 0.4488 0.0000
vt 0.4510 0.3834 0.0000
vt 0.9038 0.3129 0.0000
vt 0.8826 0.2072 0.0000
vt 0.8692 0.6025 0.0000
vt 0.8433 0.4497 0.0000
vt 0.8357 0.3023 0.0000
vt 0.8404 0.1988 0.0000
vt 0.7790 0.5988 0.0000
vt 0.7504 0.4773 0.0000
vt 0.7700 0.3386 0.0000
vt 0.7950 0.1932 0.0000
vt 0.6262 0.8981 0.0000
# 79 texture coords

g CL_Sapin1_SeamsColor
usemtl Standardmaterial
f 4/4/1 5/5/2 6/6/3 
f 6/6/4 1/1/5 2/2/6 
f 4/4/7 6/6/8 2/2/9 
f 3/3/10 4/4/11 2/2/12 
f 7/7/13 11/12/14 2/2/15 1/1/16 
f 11/12/17 8/8/18 3/3/19 2/2/20 
f 8/8/21 9/9/22 4/4/23 3/3/24 
f 9/9/25 10/11/26 5/5/27 4/4/28 
f 10/10/29 67/79/30 6/6/31 5/5/32 
f 67/79/33 7/7/34 1/1/35 6/6/36 
f 21/23/37 48/56/38 25/28/39 44/52/40 
f 29/33/41 21/23/42 44/52/43 52/60/44 
f 33/41/45 29/33/46 52/60/47 56/68/48 
f 37/45/49 33/40/50 56/67/51 60/72/52 
f 65/77/53 37/45/54 60/72/55 40/48/56 
f 48/56/57 65/77/58 40/48/59 25/28/60 
f 22/24/61 18/20/62 23/26/63 
f 46/54/64 47/55/65 24/27/66 45/53/67 
f 12/13/68 13/14/69 19/21/70 26/29/71 
f 50/58/72 43/51/73 20/22/74 49/57/75 
f 30/34/76 18/20/77 22/25/78 
f 54/64/79 46/54/80 45/53/81 53/62/82 
f 13/14/83 14/15/84 27/30/85 19/21/86 
f 43/51/87 51/59/88 28/31/89 20/22/90 
f 34/42/91 18/20/92 30/34/93 
f 58/70/94 54/63/95 53/61/96 57/69/97 
f 14/15/98 15/16/99 31/37/100 27/30/101 
f 51/59/102 55/66/103 32/39/104 28/31/105 
f 38/46/106 18/20/107 34/42/108 
f 62/74/109 58/70/110 57/69/111 61/73/112 
f 15/17/113 16/18/114 35/43/115 31/36/116 
f 55/65/117 59/71/118 36/44/119 32/38/120 
f 42/50/121 18/20/122 38/46/123 
f 66/78/124 62/74/125 61/73/126 41/49/127 
f 16/18/128 17/19/129 39/47/130 35/43/131 
f 59/71/132 63/75/133 64/76/134 36/44/135 
f 23/26/136 18/20/137 42/50/138 
f 47/55/139 66/78/140 41/49/141 24/27/142 
f 17/19/143 12/13/144 26/29/145 39/47/146 
f 63/75/147 50/58/148 49/57/149 64/76/150 
f 46/54/151 22/24/152 23/26/153 47/55/154 
f 21/23/155 45/53/156 24/27/157 48/56/158 
f 50/58/159 26/29/160 19/21/161 43/51/162 
f 25/28/163 49/57/164 20/22/165 44/52/166 
f 54/64/167 30/35/168 22/24/169 46/54/170 
f 29/33/171 53/62/172 45/53/173 21/23/174 
f 43/51/175 19/21/176 27/30/177 51/59/178 
f 44/52/179 20/22/180 28/31/181 52/60/182 
f 58/70/183 34/42/184 30/34/185 54/63/186 
f 33/40/187 57/69/188 53/61/189 29/32/190 
f 51/59/191 27/30/192 31/37/193 55/66/194 
f 52/60/195 28/31/196 32/39/197 56/68/198 
f 62/74/199 38/46/200 34/42/201 58/70/202 
f 37/45/203 61/73/204 57/69/205 33/40/206 
f 55/65/207 31/36/208 35/43/209 59/71/210 
f 56/67/211 32/38/212 36/44/213 60/72/214 
f 66/78/215 42/50/216 38/46/217 62/74/218 
f 65/77/219 41/49/220 61/73/221 37/45/222 
f 59/71/223 35/43/224 39/47/225 63/75/226 
f 60/72/227 36/44/228 64/76/229 40/48/230 
f 47/55/231 23/26/232 42/50/233 66/78/234 
f 48/56/235 24/27/236 41/49/237 65/77/238 
f 63/75/239 39/47/240 26/29/241 50/58/242 
f 40/48/243 64/76/244 49/57/245 25/28/246 
f 13/14/247 12/13/248 11/12/249 7/7/250 
f 12/13/251 17/19/252 8/8/253 11/12/254 
f 17/19/255 16/18/256 9/9/257 8/8/258 
f 16/18/259 15/17/260 10/11/261 9/9/262 
f 15/16/263 14/15/264 67/79/265 10/10/266 
f 14/15/267 13/14/268 7/7/269 67/79/270 
# 60 polygons - 10 triangles

