# Wavefront Obj file
# 
# verts: 67 uv-s: 79
mtllib sapin_texture_coat.mtl

g CL_Sapin1_SeamsColor

v -1.693300 -0.568802 -4.447500
v 0.874400 -0.568802 0.000000
v -0.427900 -0.568802 4.507700
v -6.828800 -0.568802 4.447500
v -10.983600 -0.568802 1.450200
v -8.090100 -0.568802 -5.582500
v -1.492400 9.357601 -3.443600
v -1.334500 9.357601 5.113700
v -6.542300 9.357601 3.335500
v -7.981200 9.357601 0.486100
v 0.000400 9.357601 -0.769500
v 16.439301 9.411200 0.000000
v 6.089100 14.182400 -17.927000
v -14.611300 9.411200 -17.927000
v -20.441299 0.851501 0.000000
v -14.611300 5.885700 17.927000
v 6.089100 13.142399 17.927000
v -4.261100 71.539902 0.000000
v -0.071600 19.169701 -7.256400
v -0.793000 29.411100 -6.007000
v -1.514300 39.652500 -4.757500
v -0.554600 53.041401 -6.419900
v 4.497500 46.801102 0.000000
v 7.005301 38.972801 0.000000
v 9.973600 24.100100 5.937800
v 4.117900 19.169701 0.000000
v -8.450600 19.169701 -7.256400
v -7.729200 29.411100 -6.007000
v -7.007800 39.652500 -4.757500
v -7.967600 49.245602 -10.003000
v -12.640100 19.169701 0.000000
v -11.197300 29.411100 0.000000
v -9.754600 39.652500 0.000000
v -11.674100 49.245602 0.000000
v -8.450600 19.169701 7.256400
v -7.729200 29.411100 6.007000
v -7.007800 39.652500 4.757500
v -7.967600 53.026402 6.419900
v -0.071600 19.169701 7.256400
v -3.979000 28.841000 14.515900
v 1.372100 35.702099 9.757000
v -0.782600 49.245602 6.419900
v 5.291201 18.490900 -16.545000
v 7.105400 32.372398 -15.079400
v 1.372100 41.924301 -7.726400
v -2.235700 49.894001 -3.508000
v -0.210300 49.894001 0.000000
v 1.232400 39.652500 0.000000
v 2.675200 29.411100 0.000000
v 14.843500 18.490900 0.000000
v -13.813400 18.490900 -16.545000
v -11.378400 28.841000 -12.327600
v -5.967900 38.972801 -7.374500
v -6.286400 49.894001 -3.508000
v -23.365601 18.490900 0.000000
v -18.495701 25.733900 0.000000
v -17.896200 36.461300 -2.178500
v -8.311800 49.894001 0.000000
v -13.813300 18.490900 16.545000
v -9.169500 28.841000 12.327600
v -9.894300 38.972801 9.757000
v -6.286400 49.894001 3.508000
v 5.291201 18.490900 16.545000
v -0.793000 29.411100 6.007000
v -1.514300 39.652500 4.757500
v -2.235700 49.894001 3.508000
v -6.761200 9.357601 -4.420600
# 67 positions

vt 0.743600 0.962500
vt 0.723300 0.998000
vt 0.683200 0.959700
vt 0.688200 0.927500
vt 0.713200 0.918100
vt 0.737600 0.919500
vt 0.673800 0.877100
vt 0.704100 0.873800
vt 0.769600 0.877600
vt 0.807300 0.911800
vt 0.826000 0.932000
vt 0.609100 0.942500
vt 0.626200 0.898100
vt 0.660300 0.298600
vt 0.713500 0.317200
vt 0.730600 0.443400
vt 0.638300 0.408200
vt 0.611400 0.288000
vt 0.552800 0.406600
vt 0.567900 0.266300
vt 0.451000 0.383400
vt 0.830600 0.343100
vt 0.885300 0.341900
vt 0.950300 0.448800
vt 0.843300 0.449700
vt 0.770000 0.338600
vt 0.819500 0.448300
vt 0.727200 0.109900
vt 0.865600 0.002000
vt 0.745500 0.166300
vt 0.714100 0.162700
vt 0.750900 0.185200
vt 0.722000 0.282000
vt 0.676700 0.255900
vt 0.704700 0.768500
vt 0.619400 0.761700
vt 0.603400 0.676400
vt 0.687900 0.669600
vt 0.692700 0.602800
vt 0.606900 0.604000
vt 0.615500 0.479100
vt 0.684800 0.487200
vt 0.979200 0.174800
vt 0.998000 0.099800
vt 0.682400 0.150200
vt 0.617400 0.256200
vt 0.544900 0.817000
vt 0.520100 0.690500
vt 0.514400 0.607900
vt 0.548000 0.469900
vt 0.895800 0.188200
vt 0.882600 0.207200
vt 0.920500 0.208800
vt 0.964500 0.294300
vt 0.903800 0.312900
vt 0.458800 0.916000
vt 0.445000 0.703600
vt 0.388700 0.605300
vt 0.485100 0.460100
vt 0.847600 0.165800
vt 0.840400 0.198800
vt 0.835700 0.302300
vt 0.978600 0.860100
vt 0.870500 0.804500
vt 0.856700 0.673300
vt 0.930600 0.679300
vt 0.991100 0.603600
vt 0.869200 0.602500
vt 0.834900 0.487600
vt 0.900600 0.491000
vt 0.798700 0.175800
vt 0.795000 0.193200
vt 0.778500 0.303300
vt 0.777200 0.762600
vt 0.773300 0.669600
vt 0.779000 0.598800
vt 0.750400 0.477300
vt 0.657300 0.098400
vt 0.940000 0.314100
# 79 texture coordinates

vn 0.000000 -1.000000 0.000000
vn 0.000000 -1.000000 0.000000
vn 0.000000 -1.000000 0.000000
vn 0.000000 -1.000000 0.000000
vn 0.000000 -1.000000 0.000000
vn 0.000000 -1.000000 0.000000
vn 0.868174 0.035280 -0.495004
vn 0.868174 0.035280 -0.495004
vn 0.868174 0.035280 -0.495004
vn 0.868174 0.035280 -0.495004
vn 0.965457 0.088610 0.245032
vn 0.965457 0.088610 0.245032
vn 0.965457 0.088610 0.245032
vn 0.965457 0.088610 0.245032
vn -0.156383 0.020284 0.987488
vn -0.156383 0.020284 0.987488
vn -0.156383 0.020284 0.987488
vn -0.156383 0.020284 0.987488
vn -0.709607 0.188552 0.678901
vn -0.709607 0.188552 0.678901
vn -0.709607 0.188552 0.678901
vn -0.709607 0.188552 0.678901
vn -0.925367 0.205064 -0.318818
vn -0.925367 0.205064 -0.318818
vn -0.925367 0.205064 -0.318818
vn -0.925367 0.205064 -0.318818
vn 0.177373 0.093213 -0.979719
vn 0.177373 0.093213 -0.979719
vn 0.177373 0.093213 -0.979719
vn 0.177373 0.093213 -0.979719
vn 0.797687 0.602750 0.019678
vn 0.797687 0.602750 0.019678
vn 0.797687 0.602750 0.019678
vn 0.797687 0.602750 0.019678
vn -0.181284 0.669670 -0.720193
vn -0.181284 0.669670 -0.720193
vn -0.181284 0.669670 -0.720193
vn -0.181284 0.669670 -0.720193
vn -0.777095 0.520378 -0.354020
vn -0.777095 0.520378 -0.354020
vn -0.777095 0.520378 -0.354020
vn -0.777095 0.520378 -0.354020
vn -0.758165 0.471977 0.449915
vn -0.758165 0.471977 0.449915
vn -0.758165 0.471977 0.449915
vn -0.758165 0.471977 0.449915
vn -0.154550 0.637768 0.754564
vn -0.154550 0.637768 0.754564
vn -0.154550 0.637768 0.754564
vn -0.154550 0.637768 0.754564
vn 0.621658 0.504656 0.599053
vn 0.621658 0.504656 0.599053
vn 0.621658 0.504656 0.599053
vn 0.621658 0.504656 0.599053
vn 0.869920 0.307989 -0.385205
vn 0.869920 0.307989 -0.385205
vn 0.869920 0.307989 -0.385205
vn 0.762281 0.522151 -0.382475
vn 0.762281 0.522151 -0.382475
vn 0.762281 0.522151 -0.382475
vn 0.762281 0.522151 -0.382475
vn 0.554759 0.815319 -0.165823
vn 0.554759 0.815319 -0.165823
vn 0.554759 0.815319 -0.165823
vn 0.554759 0.815319 -0.165823
vn 0.623178 0.694404 -0.359794
vn 0.623178 0.694404 -0.359794
vn 0.623178 0.694404 -0.359794
vn 0.623178 0.694404 -0.359794
vn 0.249047 0.361696 -0.898416
vn 0.249047 0.361696 -0.898416
vn 0.249047 0.361696 -0.898416
vn -0.123956 0.368538 -0.921311
vn -0.123956 0.368538 -0.921311
vn -0.123956 0.368538 -0.921311
vn -0.123956 0.368538 -0.921311
vn -0.133773 0.815318 -0.563348
vn -0.133773 0.815318 -0.563348
vn -0.133773 0.815318 -0.563348
vn -0.133773 0.815318 -0.563348
vn 0.000000 0.694402 -0.719587
vn 0.000000 0.694402 -0.719587
vn 0.000000 0.694402 -0.719587
vn 0.000000 0.694402 -0.719587
vn -0.895194 0.297658 -0.331704
vn -0.895194 0.297658 -0.331704
vn -0.895194 0.297658 -0.331704
vn -0.536861 0.389958 -0.748140
vn -0.536861 0.389958 -0.748140
vn -0.536861 0.389958 -0.748140
vn -0.536861 0.389958 -0.748140
vn -0.854080 0.490497 -0.173088
vn -0.854080 0.490497 -0.173088
vn -0.854080 0.490497 -0.173088
vn -0.854080 0.490497 -0.173088
vn -0.623180 0.694404 -0.359790
vn -0.623180 0.694404 -0.359790
vn -0.623180 0.694404 -0.359790
vn -0.623180 0.694404 -0.359790
vn -0.892245 0.296677 0.340415
vn -0.892245 0.296677 0.340415
vn -0.892245 0.296677 0.340415
vn -0.767147 0.485610 0.419128
vn -0.767147 0.485610 0.419128
vn -0.767147 0.485610 0.419128
vn -0.767147 0.485610 0.419128
vn -0.852687 0.460205 0.247256
vn -0.852687 0.460205 0.247256
vn -0.852687 0.460205 0.247256
vn -0.852687 0.460205 0.247256
vn -0.623180 0.694403 0.359793
vn -0.623180 0.694403 0.359793
vn -0.623180 0.694403 0.359793
vn -0.623180 0.694403 0.359793
vn 0.155593 0.295688 0.942528
vn 0.155593 0.295688 0.942528
vn 0.155593 0.295688 0.942528
vn 0.094710 0.443540 0.891236
vn 0.094710 0.443540 0.891236
vn 0.094710 0.443540 0.891236
vn 0.094710 0.443540 0.891236
vn -0.181949 0.729114 0.659763
vn -0.181949 0.729114 0.659763
vn -0.181949 0.729114 0.659763
vn -0.181949 0.729114 0.659763
vn 0.000000 0.694402 0.719587
vn 0.000000 0.694402 0.719587
vn 0.000000 0.694402 0.719587
vn 0.000000 0.694402 0.719587
vn 0.791012 0.280052 0.543939
vn 0.791012 0.280052 0.543939
vn 0.791012 0.280052 0.543939
vn 0.724479 0.443536 0.527642
vn 0.724479 0.443536 0.527642
vn 0.724479 0.443536 0.527642
vn 0.724479 0.443536 0.527642
vn 0.563594 0.799720 0.206905
vn 0.563594 0.799720 0.206905
vn 0.563594 0.799720 0.206905
vn 0.563594 0.799720 0.206905
vn 0.623178 0.694404 0.359794
vn 0.623178 0.694404 0.359794
vn 0.623178 0.694404 0.359794
vn 0.623178 0.694404 0.359794
vn -0.185904 -0.886151 -0.424471
vn -0.185904 -0.886151 -0.424471
vn -0.185904 -0.886151 -0.424471
vn -0.185904 -0.886151 -0.424471
vn 0.079950 -0.956707 -0.279856
vn 0.079950 -0.956707 -0.279856
vn 0.079950 -0.956707 -0.279856
vn 0.079950 -0.956707 -0.279856
vn -0.063120 -0.997340 0.036442
vn -0.063120 -0.997340 0.036442
vn -0.063120 -0.997340 0.036442
vn -0.063120 -0.997340 0.036442
vn -0.197205 -0.949414 -0.244383
vn -0.197205 -0.949414 -0.244383
vn -0.197205 -0.949414 -0.244383
vn -0.197205 -0.949414 -0.244383
vn 0.371604 -0.897269 -0.238369
vn 0.371604 -0.897269 -0.238369
vn 0.371604 -0.897269 -0.238369
vn 0.371604 -0.897269 -0.238369
vn 0.219293 -0.968030 -0.121770
vn 0.219293 -0.968030 -0.121770
vn 0.219293 -0.968030 -0.121770
vn 0.219293 -0.968030 -0.121770
vn 0.000000 -0.997340 0.072885
vn 0.000000 -0.997340 0.072885
vn 0.000000 -0.997340 0.072885
vn 0.000000 -0.997340 0.072885
vn 0.123997 -0.985145 -0.118806
vn 0.123997 -0.985145 -0.118806
vn 0.123997 -0.985145 -0.118806
vn 0.123997 -0.985145 -0.118806
vn 0.163631 -0.984076 0.069419
vn 0.163631 -0.984076 0.069419
vn 0.163631 -0.984076 0.069419
vn 0.163631 -0.984076 0.069419
vn 0.326620 -0.911030 0.251683
vn 0.326620 -0.911030 0.251683
vn 0.326620 -0.911030 0.251683
vn 0.326620 -0.911030 0.251683
vn 0.063120 -0.997340 0.036442
vn 0.063120 -0.997340 0.036442
vn 0.063120 -0.997340 0.036442
vn 0.063120 -0.997340 0.036442
vn 0.342088 -0.938883 0.038394
vn 0.342088 -0.938883 0.038394
vn 0.342088 -0.938883 0.038394
vn 0.342088 -0.938883 0.038394
vn -0.179987 -0.880213 0.439124
vn -0.179987 -0.880213 0.439124
vn -0.179987 -0.880213 0.439124
vn -0.179987 -0.880213 0.439124
vn 0.316547 -0.946587 -0.061409
vn 0.316547 -0.946587 -0.061409
vn 0.316547 -0.946587 -0.061409
vn 0.316547 -0.946587 -0.061409
vn 0.063120 -0.997340 -0.036443
vn 0.063120 -0.997340 -0.036443
vn 0.063120 -0.997340 -0.036443
vn 0.063120 -0.997340 -0.036443
vn 0.372922 -0.922018 -0.103982
vn 0.372922 -0.922018 -0.103982
vn 0.372922 -0.922018 -0.103982
vn 0.372922 -0.922018 -0.103982
vn -0.296952 -0.882476 0.364768
vn -0.296952 -0.882476 0.364768
vn -0.296952 -0.882476 0.364768
vn -0.296952 -0.882476 0.364768
vn -0.174373 -0.893532 -0.413757
vn -0.174373 -0.893532 -0.413757
vn -0.174373 -0.893532 -0.413757
vn -0.174373 -0.893532 -0.413757
vn 0.000000 -0.997340 -0.072885
vn 0.000000 -0.997340 -0.072885
vn 0.000000 -0.997340 -0.072885
vn 0.000000 -0.997340 -0.072885
vn 0.013099 -0.997276 -0.072591
vn 0.013099 -0.997276 -0.072591
vn 0.013099 -0.997276 -0.072591
vn 0.013099 -0.997276 -0.072591
vn -0.469021 -0.873561 -0.130039
vn -0.469021 -0.873561 -0.130039
vn -0.469021 -0.873561 -0.130039
vn -0.469021 -0.873561 -0.130039
vn -0.271139 -0.893532 -0.357890
vn -0.271139 -0.893532 -0.357890
vn -0.271139 -0.893532 -0.357890
vn -0.271139 -0.893532 -0.357890
vn -0.063120 -0.997340 -0.036442
vn -0.063120 -0.997340 -0.036442
vn -0.063120 -0.997340 -0.036442
vn -0.063120 -0.997340 -0.036442
vn -0.431513 -0.871752 -0.232046
vn -0.431513 -0.871752 -0.232046
vn -0.431513 -0.871752 -0.232046
vn -0.431513 -0.871752 -0.232046
vn 0.051542 -0.965999 -0.253355
vn 0.051542 -0.965999 -0.253355
vn 0.051542 -0.965999 -0.253355
vn 0.051542 -0.965999 -0.253355
vn 0.055000 -0.981968 0.180872
vn 0.055000 -0.981968 0.180872
vn 0.055000 -0.981968 0.180872
vn 0.055000 -0.981968 0.180872
vn 0.268570 -0.963105 0.017321
vn 0.268570 -0.963105 0.017321
vn 0.268570 -0.963105 0.017321
vn 0.268570 -0.963105 0.017321
vn 0.517213 -0.855452 0.026325
vn 0.517213 -0.855452 0.026325
vn 0.517213 -0.855452 0.026325
vn 0.517213 -0.855452 0.026325
vn 0.478546 -0.860484 -0.174817
vn 0.478546 -0.860484 -0.174817
vn 0.478546 -0.860484 -0.174817
vn 0.478546 -0.860484 -0.174817
vn 0.184256 -0.967981 -0.170479
vn 0.184256 -0.967981 -0.170479
vn 0.184256 -0.967981 -0.170479
vn 0.184256 -0.967981 -0.170479
# 264 normals

usemtl Standardmaterial
s 1
f 4/1/1 5/2/2 6/3/3
f 6/3/3 1/4/4 2/5/5
f 4/1/1 6/3/3 2/5/5
f 3/6/6 4/1/1 2/5/5
s 2
f 7/7/7 11/8/8 2/5/9 1/4/10
s 3
f 11/8/11 8/9/12 3/6/13 2/5/14
s 4
f 8/9/15 9/10/16 4/1/17 3/6/18
s 5
f 9/10/19 10/11/20 5/2/21 4/1/22
s 6
f 10/12/23 67/13/24 6/3/25 5/2/26
s 7
f 67/13/27 7/7/28 1/4/29 6/3/30
s 8
f 21/14/31 48/15/32 25/16/33 44/17/34
s 9
f 29/18/35 21/14/36 44/17/37 52/19/38
s 10
f 33/20/39 29/18/40 52/19/41 56/21/42
s 11
f 37/22/43 33/23/44 56/24/45 60/25/46
s 12
f 65/26/47 37/22/48 60/25/49 40/27/50
s 13
f 48/15/51 65/26/52 40/27/53 25/16/54
s 14
f 22/28/55 18/29/56 23/30/57
s 15
f 46/31/58 47/32/59 24/33/60 45/34/61
s 16
f 12/35/62 13/36/63 19/37/64 26/38/65
s 17
f 50/39/66 43/40/67 20/41/68 49/42/69
s 18
f 30/43/70 18/29/71 22/44/72
s 19
f 54/45/73 46/31/74 45/34/75 53/46/76
s 20
f 13/36/77 14/47/78 27/48/79 19/37/80
s 21
f 43/40/81 51/49/82 28/50/83 20/41/84
s 22
f 34/51/85 18/29/86 30/43/87
s 23
f 58/52/88 54/53/89 53/54/90 57/55/91
s 24
f 14/47/92 15/56/93 31/57/94 27/48/95
s 25
f 51/49/96 55/58/97 32/59/98 28/50/99
s 26
f 38/60/100 18/29/101 34/51/102
s 27
f 62/61/103 58/52/104 57/55/105 61/62/106
s 28
f 15/63/107 16/64/108 35/65/109 31/66/110
s 29
f 55/67/111 59/68/112 36/69/113 32/70/114
s 30
f 42/71/115 18/29/116 38/60/117
s 31
f 66/72/118 62/61/119 61/62/120 41/73/121
s 32
f 16/64/122 17/74/123 39/75/124 35/65/125
s 33
f 59/68/126 63/76/127 64/77/128 36/69/129
s 34
f 23/30/130 18/29/131 42/71/132
s 35
f 47/32/133 66/72/134 41/73/135 24/33/136
s 36
f 17/74/137 12/35/138 26/38/139 39/75/140
s 37
f 63/76/141 50/39/142 49/42/143 64/77/144
s 38
f 46/31/145 22/28/146 23/30/147 47/32/148
s 39
f 21/14/149 45/34/150 24/33/151 48/15/152
s 40
f 50/39/153 26/38/154 19/37/155 43/40/156
s 41
f 25/16/157 49/42/158 20/41/159 44/17/160
s 42
f 54/45/161 30/78/162 22/28/163 46/31/164
s 43
f 29/18/165 53/46/166 45/34/167 21/14/168
s 44
f 43/40/169 19/37/170 27/48/171 51/49/172
s 45
f 44/17/173 20/41/174 28/50/175 52/19/176
s 46
f 58/52/177 34/51/178 30/43/179 54/53/180
s 47
f 33/23/181 57/55/182 53/54/183 29/79/184
s 48
f 51/49/185 27/48/186 31/57/187 55/58/188
s 49
f 52/19/189 28/50/190 32/59/191 56/21/192
s 50
f 62/61/193 38/60/194 34/51/195 58/52/196
s 51
f 37/22/197 61/62/198 57/55/199 33/23/200
s 52
f 55/67/201 31/66/202 35/65/203 59/68/204
s 53
f 56/24/205 32/70/206 36/69/207 60/25/208
s 54
f 66/72/209 42/71/210 38/60/211 62/61/212
s 55
f 65/26/213 41/73/214 61/62/215 37/22/216
s 56
f 59/68/217 35/65/218 39/75/219 63/76/220
s 57
f 60/25/221 36/69/222 64/77/223 40/27/224
s 58
f 47/32/225 23/30/226 42/71/227 66/72/228
s 59
f 48/15/229 24/33/230 41/73/231 65/26/232
s 60
f 63/76/233 39/75/234 26/38/235 50/39/236
s 61
f 40/27/237 64/77/238 49/42/239 25/16/240
s 62
f 13/36/241 12/35/242 11/8/243 7/7/244
s 63
f 12/35/245 17/74/246 8/9/247 11/8/248
s 64
f 17/74/249 16/64/250 9/10/251 8/9/252
s 65
f 16/64/253 15/63/254 10/11/255 9/10/256
s 66
f 15/56/257 14/47/258 67/13/259 10/12/260
s 67
f 14/47/261 13/36/262 7/7/263 67/13/264

# 70 faces
