# 3ds Max Wavefront OBJ Exporter v0.97b - (c)2007 guruware
# File Created: 20.10.2016 16:37:21

mtllib sapin.mtl

#
# object Sapin
#

v  2.5678 -0.5684 -4.4475
v  5.1355 -0.5684 -0.0000
v  3.8332 -0.5684 4.5077
v  -2.5678 -0.5684 4.4475
v  -6.7225 -0.5684 1.4502
v  -3.8290 -0.5684 -5.5825
v  2.7687 9.3580 -3.4436
v  2.9266 9.3580 5.1137
v  -2.2813 9.3580 3.3355
v  -3.7201 9.3580 0.4861
v  4.2614 9.3580 -0.7695
v  20.7004 9.4116 0.0000
v  10.3502 14.1828 -17.9270
v  -10.3502 9.4116 -17.9270
v  -16.1802 0.8519 0.0000
v  -10.3502 5.8861 17.9270
v  10.3502 13.1428 17.9270
v  0.0760 71.5404 0.0000
v  0.0380 71.5404 -0.0658
v  -0.0380 71.5404 -0.0658
v  -0.0760 71.5404 0.0000
v  -0.0380 71.5404 0.0658
v  0.0380 71.5404 0.0658
v  4.1895 19.1701 -7.2564
v  3.4681 29.4116 -6.0070
v  2.7467 39.6530 -4.7575
v  3.7065 53.0418 -6.4199
v  8.7586 46.8015 0.0000
v  11.2664 38.9733 0.0000
v  14.2347 24.1006 5.9378
v  8.3790 19.1701 0.0000
v  -4.1895 19.1701 -7.2564
v  -3.4681 29.4116 -6.0070
v  -2.7467 39.6530 -4.7575
v  -3.7065 49.2461 -10.0030
v  -8.3790 19.1701 0.0000
v  -6.9363 29.4116 0.0000
v  -5.4935 39.6530 0.0000
v  -7.4130 49.2461 0.0000
v  -4.1895 19.1701 7.2564
v  -3.4681 29.4116 6.0070
v  -2.7467 39.6530 4.7575
v  -3.7065 53.0268 6.4199
v  4.1895 19.1701 7.2564
v  0.2821 28.8414 14.5159
v  5.6332 35.7026 9.7570
v  3.4785 49.2461 6.4199
v  9.5523 18.4914 -16.5450
v  11.3665 32.3728 -15.0794
v  5.6332 41.9248 -7.7264
v  2.0254 49.8944 -3.5080
v  4.0507 49.8944 0.0000
v  5.4935 39.6530 0.0000
v  6.9363 29.4116 0.0000
v  19.1045 18.4914 0.0000
v  -9.5523 18.4914 -16.5450
v  -7.1173 28.8414 -12.3276
v  -1.7069 38.9733 -7.3745
v  -2.0254 49.8944 -3.5080
v  -19.1045 18.4914 0.0000
v  -14.2347 25.7344 0.0000
v  -13.6351 36.4617 -2.1785
v  -4.0507 49.8944 0.0000
v  -9.5523 18.4914 16.5450
v  -4.9084 28.8414 12.3276
v  -5.6332 38.9733 9.7570
v  -2.0254 49.8944 3.5080
v  9.5523 18.4914 16.5450
v  3.4681 29.4116 6.0070
v  2.7467 39.6530 4.7575
v  2.0254 49.8944 3.5080
v  -2.5001 9.3580 -4.4206
# 72 vertices

vn 0.0000 -1.0000 -0.0000
vn 0.0000 -1.0000 -0.0000
vn 0.0000 -1.0000 -0.0000
vn 0.0000 -1.0000 -0.0000
vn 0.0000 -1.0000 -0.0000
vn 0.0000 -1.0000 -0.0000
vn 0.0000 -1.0000 -0.0000
vn 0.0000 -1.0000 -0.0000
vn 0.0000 -1.0000 -0.0000
vn 0.0000 -1.0000 -0.0000
vn 0.8705 0.0373 -0.4908
vn 0.8725 0.0391 -0.4871
vn 0.8669 0.0342 -0.4973
vn 0.8656 0.0330 -0.4997
vn 0.9680 0.0839 0.2364
vn 0.9724 0.0753 0.2206
vn 0.9616 0.0953 0.2573
vn 0.9553 0.1055 0.2760
vn -0.2131 0.0525 0.9756
vn -0.3210 0.1146 0.9401
vn -0.1113 -0.0051 0.9938
vn -0.0094 -0.0618 0.9980
vn -0.7962 0.2517 0.5502
vn -0.8517 0.2994 0.4301
vn -0.6508 0.1498 0.7443
vn -0.5817 0.1071 0.8063
vn -0.9376 0.1887 -0.2919
vn -0.9585 0.1562 -0.2383
vn -0.9189 0.2130 -0.3319
vn -0.8987 0.2359 -0.3698
vn 0.1788 0.0939 -0.9794
vn 0.1815 0.0953 -0.9788
vn 0.1763 0.0927 -0.9800
vn 0.1740 0.0915 -0.9805
vn 0.8322 0.5451 -0.1013
vn 0.8304 0.2837 -0.4795
vn 0.8024 0.5968 0.0060
vn 0.7400 0.6542 0.1565
vn -0.1452 0.7041 -0.6951
vn 0.0000 0.8172 -0.5764
vn -0.1759 0.6749 -0.7166
vn -0.2301 0.6189 -0.7510
vn -0.7552 0.5389 -0.3731
vn -0.7094 0.5736 -0.4096
vn -0.7794 0.5183 -0.3519
vn -0.7981 0.5012 -0.3344
vn -0.7590 0.4737 0.4467
vn -0.7608 0.4778 0.4392
vn -0.7581 0.4718 0.4503
vn -0.7570 0.4695 0.4544
vn -0.0765 0.6077 0.7905
vn 0.0000 0.5736 0.8192
vn -0.2255 0.6609 0.7158
vn -0.2859 0.6772 0.6780
vn 0.6909 0.4386 0.5747
vn 0.8394 0.2461 0.4846
vn 0.6190 0.5070 0.5998
vn 0.5648 0.5517 0.6137
vn 0.0000 1.0000 -0.0000
vn 0.0000 1.0000 -0.0000
vn 0.0000 1.0000 -0.0000
vn 0.0000 1.0000 -0.0000
vn 0.0000 1.0000 -0.0000
vn 0.0000 1.0000 -0.0000
vn 0.0000 1.0000 -0.0000
vn 0.0000 1.0000 -0.0000
vn 0.0000 1.0000 -0.0000
vn 0.0000 1.0000 -0.0000
vn 0.8376 0.2940 -0.4603
vn 0.8286 0.2908 -0.4784
vn 0.8696 0.3055 -0.3878
vn 0.8698 0.3056 -0.3874
vn 0.7588 0.5132 -0.4011
vn 0.7517 0.4966 -0.4340
vn 0.7633 0.5249 -0.3766
vn 0.7668 0.5349 -0.3547
vn 0.5948 0.8038 0.0083
vn 0.5343 0.8411 -0.0846
vn 0.5582 0.8097 -0.1813
vn 0.5892 0.8054 -0.0650
vn 0.6232 0.6944 -0.3598
vn 0.6232 0.6944 -0.3598
vn 0.6232 0.6944 -0.3598
vn 0.6232 0.6944 -0.3598
vn 0.0508 0.3336 -0.9413
vn 0.0000 0.3249 -0.9458
vn 0.2500 0.3594 -0.8991
vn 0.2504 0.3595 -0.8989
vn -0.5677 0.2991 -0.7670
vn 0.0000 0.4678 -0.8838
vn -0.1383 0.3562 -0.9241
vn -0.3777 0.3721 -0.8479
vn -0.1194 0.8271 -0.5493
vn -0.1787 0.7753 -0.6058
vn -0.1190 0.8274 -0.5489
vn -0.0000 0.9059 -0.4234
vn -0.0000 0.6944 -0.7196
vn -0.0000 0.6944 -0.7196
vn -0.0000 0.6944 -0.7196
vn -0.0000 0.6944 -0.7196
vn -0.8368 0.3317 -0.4356
vn -0.8134 0.3432 -0.4696
vn -0.8958 0.2950 -0.3323
vn -0.8960 0.2949 -0.3320
vn -0.6850 0.3010 -0.6635
vn -0.5677 0.2991 -0.7670
vn -0.3777 0.3721 -0.8479
vn -0.4349 0.4379 -0.7868
vn -0.8473 0.5000 -0.1790
vn -0.8965 0.4365 0.0763
vn -0.8650 0.4835 0.1339
vn -0.5844 0.7379 -0.3374
vn -0.6232 0.6944 -0.3598
vn -0.6232 0.6944 -0.3598
vn -0.6232 0.6944 -0.3598
vn -0.6232 0.6944 -0.3598
vn -0.8463 0.2786 0.4541
vn -0.8329 0.2741 0.4809
vn -0.8923 0.2942 0.3425
vn -0.8925 0.2942 0.3420
vn -0.7657 0.4811 0.4269
vn -0.7630 0.4730 0.4405
vn -0.7674 0.4863 0.4180
vn -0.7684 0.4896 0.4121
vn -0.8965 0.4365 0.0763
vn -0.8527 0.5044 0.1357
vn -0.8468 0.4307 0.3120
vn -0.8650 0.4835 0.1339
vn -0.6232 0.6944 0.3598
vn -0.6232 0.6944 0.3598
vn -0.6232 0.6944 0.3598
vn -0.6232 0.6944 0.3598
vn 0.0305 0.3189 0.9473
vn 0.0000 0.3246 0.9458
vn 0.1537 0.2928 0.9437
vn 0.1540 0.2927 0.9437
vn 0.0537 0.4673 0.8825
vn 0.0000 0.4966 0.8680
vn 0.1024 0.4390 0.8926
vn 0.1237 0.4261 0.8962
vn -0.1731 0.7250 0.6667
vn -0.2680 0.7644 0.5865
vn -0.1596 0.7185 0.6770
vn 0.0000 0.6262 0.7796
vn 0.0000 0.6944 0.7196
vn 0.0000 0.6944 0.7196
vn 0.0000 0.6944 0.7196
vn 0.0000 0.6944 0.7196
vn 0.8268 0.2685 0.4942
vn 0.8348 0.2662 0.4820
vn 0.7912 0.2777 0.5448
vn 0.7911 0.2777 0.5450
vn 0.7552 0.4265 0.4978
vn 0.7926 0.4030 0.4576
vn 0.7164 0.4477 0.5351
vn 0.6943 0.4587 0.5546
vn 0.5507 0.8076 0.2110
vn 0.5948 0.8038 0.0083
vn 0.5892 0.8054 -0.0650
vn 0.4259 0.8707 0.2459
vn 0.6232 0.6944 0.3598
vn 0.6232 0.6944 0.3598
vn 0.6232 0.6944 0.3598
vn 0.6232 0.6944 0.3598
vn -0.0632 -0.7755 -0.6282
vn 0.2099 -0.8299 -0.5168
vn -0.4323 -0.8819 -0.1880
vn -0.5117 -0.8547 0.0877
vn 0.0508 -0.8704 -0.4898
vn 0.1835 -0.8967 -0.4028
vn -0.0425 -0.9539 -0.2970
vn -0.1849 -0.9709 -0.1522
vn -0.0632 -0.9980 -0.0000
vn -0.0632 -0.9980 -0.0000
vn -0.0316 -0.9980 0.0547
vn -0.0316 -0.9980 0.0547
vn -0.3897 -0.8985 -0.2019
vn -0.6744 -0.7105 0.2011
vn -0.0928 -0.9554 -0.2803
vn 0.0148 -0.9643 -0.2645
vn 0.2273 -0.9700 -0.0860
vn 0.3460 -0.9382 0.0087
vn 0.2099 -0.8299 -0.5168
vn -0.0632 -0.7755 -0.6282
vn 0.6425 -0.6845 0.3446
vn 0.3746 -0.8624 0.3406
vn 0.1835 -0.8967 -0.4028
vn 0.0508 -0.8704 -0.4898
vn -0.0316 -0.9980 0.0547
vn -0.0316 -0.9980 0.0547
vn 0.0316 -0.9980 0.0547
vn 0.0316 -0.9980 0.0547
vn 0.0148 -0.9643 -0.2645
vn -0.0928 -0.9554 -0.2803
vn 0.1078 -0.9938 -0.0267
vn 0.2324 -0.9726 0.0097
vn 0.1810 -0.9833 -0.0196
vn 0.0722 -0.9829 0.1693
vn 0.3460 -0.9382 0.0087
vn 0.2273 -0.9700 -0.0860
vn 0.3834 -0.9233 -0.0214
vn 0.3206 -0.9447 0.0691
vn 0.3746 -0.8624 0.3406
vn 0.6425 -0.6845 0.3446
vn 0.0316 -0.9980 0.0547
vn 0.0316 -0.9980 0.0547
vn 0.0632 -0.9980 -0.0000
vn 0.0632 -0.9980 -0.0000
vn 0.2324 -0.9726 0.0097
vn 0.1078 -0.9938 -0.0267
vn 0.4015 -0.9095 -0.1076
vn 0.4238 -0.9044 -0.0502
vn -0.1101 -0.7789 0.6174
vn -0.2662 -0.7943 0.5460
vn 0.0722 -0.9829 0.1693
vn 0.1810 -0.9833 -0.0196
vn 0.1552 -0.9838 -0.0896
vn 0.0709 -0.9829 -0.1699
vn 0.3206 -0.9447 0.0691
vn 0.3834 -0.9233 -0.0214
vn 0.0632 -0.9980 -0.0000
vn 0.0632 -0.9980 -0.0000
vn 0.0316 -0.9980 -0.0547
vn 0.0316 -0.9980 -0.0547
vn 0.4238 -0.9044 -0.0502
vn 0.4015 -0.9095 -0.1076
vn 0.2082 -0.9748 -0.0804
vn 0.1239 -0.9910 -0.0505
vn -0.2878 -0.9553 0.0670
vn -0.4323 -0.9002 -0.0521
vn -0.2662 -0.7943 0.5460
vn -0.1101 -0.7789 0.6174
vn -0.3647 -0.8527 -0.3739
vn -0.2843 -0.8550 -0.4338
vn 0.0709 -0.9829 -0.1699
vn 0.1552 -0.9838 -0.0896
vn 0.0316 -0.9980 -0.0547
vn 0.0316 -0.9980 -0.0547
vn -0.0316 -0.9980 -0.0547
vn -0.0316 -0.9980 -0.0547
vn 0.1239 -0.9910 -0.0505
vn 0.2082 -0.9748 -0.0804
vn -0.2183 -0.9643 -0.1500
vn -0.1259 -0.9851 -0.1170
vn -0.5117 -0.8547 0.0877
vn -0.4323 -0.8819 -0.1880
vn -0.4323 -0.9002 -0.0521
vn -0.2878 -0.9553 0.0670
vn -0.1849 -0.9709 -0.1522
vn -0.0425 -0.9539 -0.2970
vn -0.2843 -0.8550 -0.4338
vn -0.3647 -0.8527 -0.3739
vn -0.0316 -0.9980 -0.0547
vn -0.0316 -0.9980 -0.0547
vn -0.0632 -0.9980 -0.0000
vn -0.0632 -0.9980 -0.0000
vn -0.1259 -0.9851 -0.1170
vn -0.2183 -0.9643 -0.1500
vn -0.6744 -0.7105 0.2011
vn -0.3897 -0.8985 -0.2019
vn 0.1412 -0.9635 -0.2274
vn 0.0358 -0.9986 -0.0382
vn 0.0729 -0.9895 -0.1252
vn 0.2234 -0.9631 -0.1501
vn 0.0358 -0.9986 -0.0382
vn 0.1639 -0.9765 0.1399
vn -0.0379 -0.9695 0.2422
vn 0.0729 -0.9895 -0.1252
vn 0.1639 -0.9765 0.1399
vn 0.4213 -0.9069 -0.0096
vn 0.2116 -0.9770 -0.0252
vn -0.0379 -0.9695 0.2422
vn 0.4213 -0.9069 -0.0096
vn 0.5264 -0.8485 -0.0546
vn 0.4899 -0.8700 0.0553
vn 0.2116 -0.9770 -0.0252
vn 0.5264 -0.8485 -0.0546
vn 0.3063 -0.9278 -0.2130
vn 0.2710 -0.9613 -0.0492
vn 0.4899 -0.8700 0.0553
vn 0.3063 -0.9278 -0.2130
vn 0.1412 -0.9635 -0.2274
vn 0.2234 -0.9631 -0.1501
vn 0.2710 -0.9613 -0.0492
# 284 vertex normals

vt 0.1585 0.4797 0.3750
vt 0.5000 1.0000 -0.2500
vt 0.9330 0.7500 -0.2500
vt 0.9330 0.2500 -0.2500
vt 0.5000 0.0000 -0.2500
vt 0.0670 0.2500 -0.2500
vt 0.0670 0.7500 -0.2500
vt 0.5000 1.0000 -0.2500
vt 0.9330 0.7500 -0.2500
vt 0.9330 0.2500 -0.2500
vt 0.5000 0.0000 -0.2500
vt 0.0670 0.2500 -0.2500
vt 0.7500 0.0000 1.0000
vt 0.9167 0.0000 1.0000
vt 0.0833 0.0000 1.0000
vt 0.2500 0.0000 1.0000
vt 0.4167 0.0000 1.0000
vt 0.5833 0.0000 1.0000
vt 0.7500 1.0000 1.0000
vt 0.9167 1.0000 1.0000
vt 0.0833 1.0000 1.0000
vt 0.2500 1.0000 1.0000
vt 0.4167 1.0000 1.0000
vt 0.5833 1.0000 1.0000
vt 1.0833 0.0000 1.0000
vt 1.0833 1.0000 1.0000
vt 0.5000 1.0000 0.2500
vt 0.0670 0.7500 0.2500
vt 0.0670 0.2500 0.2500
vt 0.5000 0.0000 0.2500
vt 0.9330 0.2500 0.2500
vt 0.9330 0.7500 0.2500
vt 0.9167 0.1906 1.0000
vt 0.9167 0.3906 1.0000
vt 0.9167 0.5906 1.0000
vt 0.9167 0.8094 1.0000
vt 0.7500 0.8094 1.0000
vt 0.7500 0.6094 1.0000
vt 0.7500 0.4094 1.0000
vt 0.7500 0.1906 1.0000
vt 1.0833 0.1906 1.0000
vt 1.0833 0.3906 1.0000
vt 1.0833 0.5906 1.0000
vt 1.0833 0.8094 1.0000
vt 0.0833 0.1906 1.0000
vt 0.0833 0.3906 1.0000
vt 0.0833 0.5906 1.0000
vt 0.0833 0.8094 1.0000
vt 0.2500 0.1906 1.0000
vt 0.2500 0.3906 1.0000
vt 0.2500 0.5906 1.0000
vt 0.2500 0.8094 1.0000
vt 0.4167 0.1906 1.0000
vt 0.4167 0.3906 1.0000
vt 0.4167 0.5906 1.0000
vt 0.4167 0.8094 1.0000
vt 0.5833 0.1906 1.0000
vt 0.5833 0.4094 1.0000
vt 0.5833 0.6094 1.0000
vt 0.5833 0.8094 1.0000
vt 0.9167 0.2094 1.0000
vt 0.9167 0.4094 1.0000
vt 0.9167 0.6094 1.0000
vt 0.9167 0.7906 1.0000
vt 0.7500 0.7906 1.0000
vt 0.7500 0.5906 1.0000
vt 0.7500 0.3906 1.0000
vt 0.7500 0.2094 1.0000
vt 1.0833 0.2094 1.0000
vt 0.0833 0.2094 1.0000
vt 1.0833 0.4094 1.0000
vt 0.0833 0.4094 1.0000
vt 1.0029 0.6684 0.3939
vt 0.0833 0.6094 1.0000
vt 1.0833 0.7906 1.0000
vt 0.2917 0.8953 0.3750
vt 0.2500 0.2094 1.0000
vt 0.2500 0.4094 1.0000
vt 0.2500 0.6094 1.0000
vt 0.2500 0.7906 1.0000
vt 0.4167 0.2094 1.0000
vt 0.4167 0.4094 1.0000
vt 0.4167 0.6094 1.0000
vt 0.4167 0.7906 1.0000
vt 0.5833 0.2094 1.0000
vt 0.5833 0.3906 1.0000
vt 0.5833 0.5906 1.0000
vt 0.5833 0.7906 1.0000
vt 0.0927 0.7273 -0.2121
vt 0.5076 0.9697 -0.2121
vt 0.9224 0.7273 -0.2121
vt 0.9174 0.2424 -0.2121
vt 0.2879 0.3047 0.3939
vt 0.0675 0.2424 -0.2121
# 94 texture coords

g Sapin
usemtl bois
s 1
f 4/4/1 5/5/2 6/6/3 2/2/4 
f 6/6/5 1/1/6 2/2/7 
f 3/3/8 4/4/9 2/2/10 
s 2
f 7/7/11 11/8/12 2/2/13 1/1/14 
s 4
f 11/8/15 8/9/16 3/3/17 2/2/18 
s 2
f 8/9/19 9/10/20 4/4/21 3/3/22 
s 4
f 9/10/23 10/11/24 5/5/25 4/4/26 
s 2
f 10/11/27 72/12/28 6/6/29 5/5/30 
s 4
f 72/12/31 7/7/32 1/1/33 6/6/34 
usemtl feuille
s 1
f 26/35/35 53/66/36 30/39/37 49/62/38 
s 2
f 34/43/39 26/35/40 49/62/41 57/71/42 
s 1
f 38/51/43 34/47/44 57/72/45 61/78/46 
s 2
f 42/55/47 38/51/48 61/78/49 65/82/50 
s 1
f 70/87/51 42/55/52 65/82/53 45/58/54 
s 2
f 53/66/55 70/87/56 45/58/57 30/39/58 
s 1
f 19/28/59 20/29/60 21/30/61 23/32/62 
f 21/30/63 22/31/64 23/32/65 
f 18/27/66 19/28/67 23/32/68 
s 2
f 19/20/69 18/19/70 28/37/71 27/36/72 
s 1
f 51/64/73 52/65/74 29/38/75 50/63/76 
f 12/13/77 13/14/78 24/33/79 31/40/80 
f 55/68/81 48/61/82 25/34/83 54/67/84 
s 4
f 20/26/85 19/20/86 27/36/87 35/44/88 
s 2
f 59/75/89 51/64/90 50/63/91 58/73/92 
f 13/14/93 14/25/94 32/41/95 24/33/96 
f 48/61/97 56/69/98 33/42/99 25/34/100 
f 21/22/101 20/21/102 35/48/103 39/52/104 
f 63/80/105 59/76/106 58/74/107 62/79/108 
s 1
f 14/15/109 15/16/110 36/49/111 32/45/112 
f 56/70/113 60/77/114 37/50/115 33/46/116 
s 4
f 22/23/117 21/22/118 39/52/119 43/56/120 
s 1
f 67/84/121 63/80/122 62/79/123 66/83/124 
f 15/16/125 16/17/126 40/53/127 36/49/128 
s 2
f 60/77/129 64/81/130 41/54/131 37/50/132 
f 23/24/133 22/23/134 43/56/135 47/60/136 
f 71/88/137 67/84/138 66/83/139 46/59/140 
f 16/17/141 17/18/142 44/57/143 40/53/144 
s 1
f 64/81/145 68/85/146 69/86/147 41/54/148 
s 4
f 18/19/149 23/24/150 47/60/151 28/37/152 
f 52/65/153 71/88/154 46/59/155 29/38/156 
s 1
f 17/18/157 12/13/158 31/40/159 44/57/160 
s 2
f 68/85/161 55/68/162 54/67/163 69/86/164 
s 8
f 51/64/165 27/36/166 28/37/167 52/65/168 
f 26/35/169 50/63/170 29/38/171 53/66/172 
s 4
f 55/68/173 31/40/174 24/33/175 48/61/176 
f 30/39/177 54/67/178 25/34/179 49/62/180 
s 8
f 59/75/181 35/44/182 27/36/183 51/64/184 
f 34/43/185 58/73/186 50/63/187 26/35/188 
s 4
f 48/61/189 24/33/190 32/41/191 56/69/192 
f 49/62/193 25/34/194 33/42/195 57/71/196 
s 8
f 63/80/197 39/52/198 35/48/199 59/76/200 
f 38/51/201 62/79/202 58/74/203 34/47/204 
s 4
f 56/70/205 32/45/206 36/49/207 60/77/208 
f 57/72/209 33/46/210 37/50/211 61/78/212 
s 8
f 67/84/213 43/56/214 39/52/215 63/80/216 
f 42/55/217 66/83/218 62/79/219 38/51/220 
s 4
f 60/77/221 36/49/222 40/53/223 64/81/224 
f 61/78/225 37/50/226 41/54/227 65/82/228 
s 8
f 71/88/229 47/60/230 43/56/231 67/84/232 
f 70/87/233 46/59/234 66/83/235 42/55/236 
s 4
f 64/81/237 40/53/238 44/57/239 68/85/240 
f 65/82/241 41/54/242 69/86/243 45/58/244 
s 8
f 52/65/245 28/37/246 47/60/247 71/88/248 
f 53/66/249 29/38/250 46/59/251 70/87/252 
s 4
f 68/85/253 44/57/254 31/40/255 55/68/256 
f 45/58/257 69/86/258 54/67/259 30/39/260 
s 8
f 13/14/261 12/13/262 11/90/263 7/89/264 
f 12/13/265 17/18/266 8/91/267 11/90/268 
f 17/18/269 16/17/270 9/92/271 8/91/272 
f 16/17/273 15/16/274 10/93/275 9/92/276 
f 15/16/277 14/15/278 72/94/279 10/93/280 
f 14/25/281 13/14/282 7/89/283 72/94/284 
# 68 polygons - 4 triangles

