# 3ds Max Wavefront OBJ Exporter v0.97b - (c)2007 guruware
# File Created: 23.10.2016 20:57:50

mtllib barriere1.mtl

#
# object piquet
#

v  -6.1638 5.5904 0.1548
v  6.1638 5.5904 0.1548
v  -6.1638 5.5904 -0.1548
v  6.1638 5.5904 -0.1548
v  -6.1638 6.2289 0.1548
v  6.1638 6.2289 0.1548
v  -6.1638 6.2289 -0.1548
v  6.1638 6.2289 -0.1548
v  4.8283 5.4839 0.2064
v  -4.8283 5.4839 0.2064
v  -4.8187 6.3045 0.2119
v  4.8292 6.3345 0.2060
v  4.7671 6.4733 -0.3254
v  -4.7016 6.4345 -0.2915
v  -3.4231 4.9728 -0.3198
v  3.0251 5.8488 0.2064
v  -2.9614 5.1588 0.2060
v  -2.9658 6.0095 0.2064
v  3.0251 6.7004 0.2064
v  3.5237 6.8760 -0.3185
v  -3.2302 2.8805 -0.3495
v  2.6528 2.9330 0.2041
v  -2.6394 3.2421 0.2041
v  -2.6552 4.0830 0.2057
v  2.6635 3.7777 0.2020
v  3.1243 3.9717 -0.3237
v  -3.2952 4.2823 -0.3178
v  6.1638 3.3389 0.1548
v  6.1638 3.3446 -0.1548
v  6.1638 3.9797 -0.1548
v  6.1638 3.9762 0.1548
v  -6.1616 2.9382 -0.1543
v  -6.1596 2.9338 0.1535
v  -6.1621 3.5676 0.1543
v  -6.1632 3.5717 -0.1546
v  4.8299 3.2382 0.2055
v  -4.8392 2.8490 0.1953
v  4.8316 4.0799 0.2043
v  -4.7367 3.8742 -0.3174
v  -4.8328 3.6705 0.2033
v  -3.9277 5.3276 -0.8935
v  -4.4875 5.3256 -0.8982
v  -4.4820 6.4728 -0.8932
v  -3.9253 6.4773 -0.8971
v  3.9256 6.4772 -0.8957
v  4.4875 6.4787 -0.8982
v  4.4875 5.3256 -0.8982
v  3.9242 5.3261 -0.8971
v  -4.4168 7.1930 -0.4861
v  -3.9943 7.1915 -0.4911
v  -3.9937 7.1933 -0.8392
v  -4.4168 7.1933 -0.8392
v  3.9965 7.1890 -0.4890
v  4.4158 7.1920 -0.4870
v  4.4168 7.1933 -0.8392
v  3.9948 7.1919 -0.8383
v  -3.9936 0.7664 -0.4861
v  -4.4168 0.7664 -0.4862
v  -4.4168 0.7732 -0.8393
v  -3.9936 0.7732 -0.8392
v  4.4168 0.7664 -0.4861
v  3.9936 0.7664 -0.4861
v  3.9936 0.7732 -0.8392
v  4.4168 0.7732 -0.8392
v  -4.4875 3.8671 -0.8982
v  -4.4860 2.3717 -0.8970
v  -3.9232 4.2747 -0.8981
v  -3.9281 2.7729 -0.8955
v  3.9265 3.9667 -0.8948
v  3.9230 2.4760 -0.8982
v  4.4871 4.2746 -0.8979
v  4.4875 2.7825 -0.8982
v  -4.7367 5.2999 -0.3174
v  4.7392 5.3000 -0.3177
v  3.5199 5.6642 -0.3181
v  -3.4441 6.1835 -0.3376
v  3.1761 2.5883 -0.3174
v  4.7367 2.8921 -0.3174
v  -4.7501 2.4698 -0.3177
v  4.7205 4.2411 -0.3087
# 80 vertices

vn -0.2226 -0.9562 0.1899
vn 0.0064 -0.9179 0.3968
vn 0.0231 -0.9321 0.3615
vn -0.1099 -0.9049 0.4112
vn -0.0185 0.9381 0.3460
vn -0.3349 0.8234 -0.4580
vn 0.1403 0.8778 0.4581
vn -0.0265 0.9288 0.3697
vn -0.0000 -0.0000 1.0000
vn 0.0001 0.0001 1.0000
vn 0.0017 -0.0004 1.0000
vn 0.0009 -0.0013 1.0000
vn 1.0000 0.0000 -0.0000
vn 1.0000 0.0000 -0.0000
vn 1.0000 0.0000 -0.0000
vn 1.0000 0.0000 -0.0000
vn 0.6202 0.0570 -0.7824
vn 0.5852 0.0343 -0.8102
vn -0.3349 0.8234 -0.4580
vn -0.6041 0.0123 -0.7968
vn -1.0000 0.0000 -0.0000
vn -1.0000 0.0000 -0.0000
vn -1.0000 0.0000 -0.0000
vn -1.0000 0.0000 -0.0000
vn 0.1284 -0.9878 0.0885
vn 0.1020 -0.9948 -0.0000
vn -0.0122 -0.9389 0.3441
vn -0.0605 -0.9380 0.3413
vn -0.2196 -0.9713 0.0914
vn -0.2530 -0.9675 -0.0000
vn -0.2287 -0.9240 0.3064
vn -0.1767 -0.9155 0.3614
vn 0.1922 0.9788 0.0711
vn 0.2192 0.9757 -0.0000
vn 0.2739 0.9344 0.2278
vn 0.2118 0.9321 0.2940
vn -0.0910 0.9939 0.0620
vn -0.0720 0.9974 -0.0000
vn 0.0119 0.9650 0.2621
vn 0.0722 0.7994 0.5964
vn 0.0436 0.0002 0.9990
vn 0.0435 0.0000 0.9991
vn 0.0198 0.0004 0.9998
vn 0.0232 0.0004 0.9997
vn -0.0455 -0.0023 0.9990
vn -0.0439 0.0000 0.9990
vn -0.0216 -0.0048 0.9998
vn -0.0246 -0.0048 0.9997
vn -0.1137 0.0112 -0.9934
vn -0.1055 0.0000 -0.9944
vn -0.1167 0.0153 -0.9930
vn -0.1223 0.0230 -0.9922
vn 0.1322 -0.0042 -0.9912
vn 0.1288 0.0000 -0.9917
vn 0.7901 -0.0157 -0.6128
vn 0.7703 0.0537 -0.6354
vn -0.0605 -0.9380 0.3413
vn -0.0122 -0.9389 0.3441
vn 0.0064 -0.9179 0.3968
vn -0.2226 -0.9562 0.1899
vn -0.1767 -0.9155 0.3614
vn -0.2287 -0.9240 0.3064
vn -0.1099 -0.9049 0.4112
vn 0.0231 -0.9321 0.3615
vn 0.2118 0.9321 0.2940
vn 0.2739 0.9344 0.2278
vn -0.3349 0.8234 -0.4580
vn -0.0185 0.9381 0.3460
vn 0.0722 0.7994 0.5964
vn 0.0119 0.9650 0.2621
vn -0.0265 0.9288 0.3697
vn 0.1403 0.8778 0.4581
vn 0.0232 0.0004 0.9997
vn 0.0198 0.0004 0.9998
vn 0.0001 0.0001 1.0000
vn -0.0000 -0.0000 1.0000
vn -0.0246 -0.0048 0.9997
vn -0.0216 -0.0048 0.9998
vn 0.0009 -0.0013 1.0000
vn 0.0017 -0.0004 1.0000
vn 0.0064 0.0008 -1.0000
vn -0.0083 0.0343 -0.9994
vn 0.4595 0.0555 -0.8864
vn 0.4411 0.0111 -0.8974
vn -0.0044 0.0354 -0.9994
vn -0.0023 -0.0001 -1.0000
vn -0.4895 -0.0006 -0.8720
vn -0.4951 0.0754 -0.8655
vn 0.0804 -0.5597 0.8248
vn 0.0072 -0.4767 0.8791
vn 0.0082 -0.4229 0.9062
vn 0.1254 -0.7127 0.6902
vn -0.0094 0.9267 0.3756
vn -0.1058 0.9396 0.3256
vn -0.1858 0.8120 0.5533
vn -0.0207 0.9189 0.3940
vn 0.0072 -0.4767 0.8791
vn -0.0002 0.0020 1.0000
vn -0.0004 -0.0014 1.0000
vn 0.0082 -0.4229 0.9062
vn 1.0000 0.0000 -0.0000
vn 1.0000 0.0000 -0.0000
vn 1.0000 0.0000 -0.0000
vn 1.0000 0.0000 -0.0000
vn 0.4608 -0.0313 -0.8869
vn 0.7915 0.0562 -0.6086
vn -0.4280 0.0363 -0.9030
vn -0.4864 -0.0350 -0.8730
vn -1.0000 -0.0028 0.0051
vn -1.0000 -0.0031 0.0058
vn -1.0000 -0.0023 0.0038
vn -1.0000 -0.0020 0.0032
vn 0.1455 -0.9782 0.1479
vn 0.0979 -0.6982 0.7092
vn 0.1200 -0.4599 0.8798
vn 0.1507 -0.6294 0.7624
vn -0.2330 -0.5991 0.7660
vn -0.3934 -0.9193 -0.0127
vn 0.0807 -0.5425 0.8362
vn 0.0344 -0.4654 0.8844
vn 0.1979 0.9762 0.0882
vn 0.2251 0.9743 0.0124
vn -0.0636 0.9436 0.3248
vn -0.0300 0.9436 0.3296
vn -0.1274 0.9858 0.1097
vn -0.0995 0.9949 0.0155
vn -0.2014 0.9187 0.3399
vn -0.2189 0.8916 0.3965
vn 0.0979 -0.6982 0.7092
vn 0.0421 0.0000 0.9991
vn 0.0213 0.0010 0.9998
vn 0.1200 -0.4599 0.8798
vn -0.0382 -0.0042 0.9993
vn -0.2330 -0.5991 0.7660
vn 0.0344 -0.4654 0.8844
vn -0.0195 -0.0075 0.9998
vn -0.1291 0.0003 -0.9916
vn -0.1283 -0.0008 -0.9917
vn -0.7904 0.0005 -0.6126
vn -0.8001 -0.0162 -0.5996
vn 0.1247 0.0038 -0.9922
vn 0.1283 0.0000 -0.9917
vn 0.1239 0.0046 -0.9923
vn 0.1217 0.0068 -0.9925
vn 0.1507 -0.6294 0.7624
vn 0.1200 -0.4599 0.8798
vn 0.0072 -0.4767 0.8791
vn 0.0804 -0.5597 0.8248
vn 0.0344 -0.4654 0.8844
vn 0.0807 -0.5425 0.8362
vn 0.1254 -0.7127 0.6902
vn 0.0082 -0.4229 0.9062
vn -0.0300 0.9436 0.3296
vn -0.0636 0.9436 0.3248
vn -0.1058 0.9396 0.3256
vn -0.0094 0.9267 0.3756
vn -0.2189 0.8916 0.3965
vn -0.2014 0.9187 0.3399
vn -0.0207 0.9189 0.3940
vn -0.1858 0.8120 0.5533
vn 0.1200 -0.4599 0.8798
vn 0.0213 0.0010 0.9998
vn -0.0002 0.0020 1.0000
vn 0.0072 -0.4767 0.8791
vn -0.0195 -0.0075 0.9998
vn 0.0344 -0.4654 0.8844
vn 0.0082 -0.4229 0.9062
vn -0.0004 -0.0014 1.0000
vn 0.0000 -0.9998 -0.0218
vn 0.0000 -0.9998 -0.0219
vn 0.0000 -0.9998 -0.0218
vn 0.0000 -0.9998 -0.0218
vn -0.9380 0.0058 -0.3466
vn -0.9488 0.1062 -0.2974
vn -0.9581 0.1021 -0.2677
vn -0.9354 0.0025 -0.3535
vn 0.0023 1.0000 0.0032
vn 0.5721 0.8202 0.0057
vn 0.4660 0.6638 -0.5850
vn 0.0001 1.0000 0.0009
vn 0.5852 0.0343 -0.8102
vn 0.6202 0.0570 -0.7824
vn 0.4411 0.0111 -0.8974
vn 0.4595 0.0555 -0.8864
vn -0.0065 1.0000 0.0070
vn -0.0091 0.9999 0.0042
vn -0.0067 1.0000 0.0068
vn -0.0040 0.9999 0.0096
vn 0.7703 0.0537 -0.6354
vn 0.7901 -0.0157 -0.6128
vn 0.9333 -0.0125 -0.3588
vn 0.9177 0.0493 -0.3942
vn -0.0000 -0.9998 -0.0218
vn 0.0000 -0.9998 -0.0218
vn -0.0000 -0.9998 -0.0218
vn -0.0000 -0.9998 -0.0218
vn -0.6041 0.0123 -0.7968
vn -0.3349 0.8234 -0.4580
vn -0.4951 0.0754 -0.8655
vn -0.4895 -0.0006 -0.8720
vn 0.0722 0.7994 0.5964
vn 0.1403 0.8778 0.4581
vn 0.0503 0.1920 0.9801
vn 0.0143 0.2172 0.9760
vn 0.5852 0.0343 -0.8102
vn 0.4595 0.0555 -0.8864
vn 0.4660 0.6638 -0.5850
vn 0.5721 0.8202 0.0057
vn 0.4595 0.0555 -0.8864
vn -0.0083 0.0343 -0.9994
vn -0.0029 0.0697 -0.9976
vn 0.4660 0.6638 -0.5850
vn -0.9581 0.1021 -0.2677
vn -0.9488 0.1062 -0.2974
vn -0.9856 0.1258 -0.1126
vn -0.9975 0.0703 0.0002
vn 0.0742 0.2873 0.9550
vn 0.1024 0.2313 0.9675
vn 0.0764 0.2830 0.9561
vn -0.0087 0.4422 0.8969
vn 0.7703 0.0537 -0.6354
vn 0.9177 0.0493 -0.3942
vn 0.9523 0.2629 -0.1551
vn 0.9343 0.3565 0.0040
vn -0.0044 0.0354 -0.9994
vn -0.4951 0.0754 -0.8655
vn -0.7025 0.1037 -0.7041
vn -0.0028 0.0725 -0.9974
vn -0.4951 0.0754 -0.8655
vn -0.3349 0.8234 -0.4580
vn -0.8929 0.2563 -0.3702
vn -0.7025 0.1037 -0.7041
vn -0.9300 -0.0216 -0.3668
vn -0.8001 -0.0162 -0.5996
vn -0.7904 0.0005 -0.6126
vn -0.9354 -0.0005 -0.3536
vn 0.3820 -0.0464 -0.9230
vn 0.0188 -0.0194 -0.9996
vn 0.0016 -0.0010 -1.0000
vn 0.3890 0.0088 -0.9212
vn 0.4608 -0.0313 -0.8869
vn 0.3820 -0.0464 -0.9230
vn 0.3890 0.0088 -0.9212
vn 0.7915 0.0562 -0.6086
vn -0.3495 -0.0259 -0.9366
vn -0.4864 -0.0350 -0.8730
vn -0.4280 0.0363 -0.9030
vn -0.3522 0.0250 -0.9356
vn 0.0040 -0.0067 -1.0000
vn -0.3495 -0.0259 -0.9366
vn -0.3522 0.0250 -0.9356
vn -0.0052 -0.0008 -1.0000
vn 0.9385 -0.0346 -0.3436
vn 0.9433 -0.0457 -0.3287
vn 0.9432 0.0037 -0.3322
vn 0.9428 0.0031 -0.3334
vn 0.0166 -0.0643 0.9978
vn -0.0002 -0.0569 0.9984
vn 0.1254 -0.7127 0.6902
vn 0.0807 -0.5425 0.8362
vn 0.0009 0.0011 1.0000
vn 0.0020 -0.0000 1.0000
vn 0.0010 0.0009 1.0000
vn 0.7915 0.0562 -0.6086
vn -0.9886 -0.1312 -0.0737
vn -0.9886 -0.1504 -0.0033
vn -0.8001 -0.0162 -0.5996
vn -0.9300 -0.0216 -0.3668
vn -0.9380 0.0058 -0.3466
vn -0.9354 0.0025 -0.3535
vn -0.9354 -0.0005 -0.3536
vn -0.7904 0.0005 -0.6126
vn 0.7126 -0.0397 -0.7005
vn 0.0001 -0.0319 -0.9995
vn 0.0188 -0.0194 -0.9996
vn 0.3820 -0.0464 -0.9230
vn 0.0064 0.0008 -1.0000
vn 0.4411 0.0111 -0.8974
vn 0.3890 0.0088 -0.9212
vn 0.0016 -0.0010 -1.0000
vn 0.9869 -0.0526 -0.1527
vn 0.7126 -0.0397 -0.7005
vn 0.3820 -0.0464 -0.9230
vn 0.4608 -0.0313 -0.8869
vn 0.4411 0.0111 -0.8974
vn 0.6202 0.0570 -0.7824
vn 0.7915 0.0562 -0.6086
vn 0.3890 0.0088 -0.9212
vn 0.0059 -0.0716 0.9974
vn 0.0000 -0.0700 0.9975
vn 0.1507 -0.6294 0.7624
vn 0.0804 -0.5597 0.8248
vn -0.0056 0.0013 1.0000
vn -0.0014 -0.0027 1.0000
vn -0.0069 0.0026 1.0000
vn -0.0123 0.0077 0.9999
vn -0.6161 -0.2043 -0.7607
vn -0.9442 -0.3293 -0.0072
vn -0.4864 -0.0350 -0.8730
vn -0.3495 -0.0259 -0.9366
vn -0.6041 0.0123 -0.7968
vn -0.4895 -0.0006 -0.8720
vn -0.3522 0.0250 -0.9356
vn -0.4280 0.0363 -0.9030
vn 0.0029 -0.0299 -0.9995
vn -0.6161 -0.2043 -0.7607
vn -0.3495 -0.0259 -0.9366
vn 0.0040 -0.0067 -1.0000
vn -0.4895 -0.0006 -0.8720
vn -0.0023 -0.0001 -1.0000
vn -0.0052 -0.0008 -1.0000
vn -0.3522 0.0250 -0.9356
vn 0.9978 -0.0372 -0.0552
vn 0.9996 -0.0274 -0.0006
vn 0.9433 -0.0457 -0.3287
vn 0.9385 -0.0346 -0.3436
vn 0.9333 -0.0125 -0.3588
vn 0.7901 -0.0157 -0.6128
vn 0.9428 0.0031 -0.3334
vn 0.9432 0.0037 -0.3322
# 320 vertex normals

vt 0.0000 0.0000 0.0000
vt 1.0000 0.0000 0.0000
vt 1.0000 0.0000 0.0000
vt 0.0000 0.0000 0.0000
vt 1.0000 0.0000 0.0000
vt 1.0000 1.0000 0.0000
vt 0.0000 0.0000 0.0000
vt 0.0000 0.0000 0.0000
vt 0.0000 1.0000 0.0000
vt 1.0000 0.0000 0.0000
vt 0.0000 1.0000 0.0000
vt 0.0000 0.0000 0.0000
vt 1.0000 1.0000 0.0000
vt 1.0000 1.0000 0.0000
vt 1.0000 0.0000 0.0000
vt 0.0000 1.0000 0.0000
vt 1.0000 1.0000 0.0000
vt 0.0000 1.0000 0.0000
vt 0.0000 1.0000 0.0000
vt 1.0000 1.0000 0.0000
vt 0.8467 0.0000 0.0000
vt 0.1533 0.0000 0.0000
vt 0.8467 0.0000 0.0000
vt 0.1533 0.0000 0.0000
vt 0.1533 0.0000 0.0000
vt 0.8467 0.0000 0.0000
vt 0.1533 1.0000 0.0000
vt 0.1533 0.0000 0.0000
vt 0.8467 1.0000 0.0000
vt 0.8467 0.0000 0.0000
vt 0.1533 1.0000 0.0000
vt 0.8467 1.0000 0.0000
vt 0.7833 0.0000 0.0000
vt 0.2167 0.0000 0.0000
vt 0.7833 0.0000 0.0000
vt 0.2167 0.0000 0.0000
vt 0.2167 0.0000 0.0000
vt 0.7833 0.0000 0.0000
vt 0.2167 1.0000 0.0000
vt 0.2167 0.0000 0.0000
vt 0.7833 1.0000 0.0000
vt 0.7833 0.0000 0.0000
vt 0.2167 1.0000 0.0000
vt 0.7833 1.0000 0.0000
vt 0.7833 0.0000 0.0000
vt 0.2167 0.0000 0.0000
vt 0.7833 0.0000 0.0000
vt 0.2167 0.0000 0.0000
vt 0.2167 0.0000 0.0000
vt 0.7833 0.0000 0.0000
vt 0.2167 1.0000 0.0000
vt 0.2167 0.0000 0.0000
vt 0.7833 1.0000 0.0000
vt 0.7833 0.0000 0.0000
vt 0.2167 0.0000 0.0000
vt 0.7833 0.0000 0.0000
vt 1.0000 0.0000 0.0000
vt 0.0000 0.0000 0.0000
vt 0.0000 0.0000 0.0000
vt 0.0000 1.0000 0.0000
vt 1.0000 0.0000 0.0000
vt 0.0000 1.0000 0.0000
vt 1.0000 1.0000 0.0000
vt 1.0000 1.0000 0.0000
vt 1.0000 0.0000 0.0000
vt 0.0000 1.0000 0.0000
vt 1.0000 0.0000 0.0000
vt 1.0000 1.0000 0.0000
vt 0.0000 0.0000 0.0000
vt 0.0000 0.0000 0.0000
vt 1.0000 0.0000 0.0000
vt 0.0000 1.0000 0.0000
vt 0.0000 0.0000 0.0000
vt 1.0000 1.0000 0.0000
vt 1.0000 1.0000 0.0000
vt 0.0000 1.0000 0.0000
vt 0.1533 0.0000 0.0000
vt 0.8467 0.0000 0.0000
vt 0.1533 0.0000 0.0000
vt 0.1533 0.0000 0.0000
vt 0.8467 0.0000 0.0000
vt 0.8467 0.0000 0.0000
vt 0.8467 1.0000 0.0000
vt 0.8467 0.0000 0.0000
vt 0.1533 0.0000 0.0000
vt 0.8467 0.0000 0.0000
vt 0.1533 1.0000 0.0000
vt 0.1533 0.0000 0.0000
vt 0.7833 0.0000 0.0000
vt 0.8467 0.0000 0.0000
vt 0.8467 1.0000 0.0000
vt 0.7833 1.0000 0.0000
vt 0.2167 1.0000 0.0000
vt 0.1533 1.0000 0.0000
vt 0.1533 0.0000 0.0000
vt 0.2167 0.0000 0.0000
vt 0.8467 1.0000 0.0000
vt 0.7833 1.0000 0.0000
vt 0.7833 1.0000 0.0000
vt 0.8467 1.0000 0.0000
vt 0.2167 1.0000 0.0000
vt 0.1533 1.0000 0.0000
vt 0.1533 1.0000 0.0000
vt 0.2167 1.0000 0.0000
vt 0.7833 0.0000 0.0000
vt 0.8467 0.0000 0.0000
vt 0.8467 0.0000 0.0000
vt 0.7833 0.0000 0.0000
vt 0.1533 0.0000 0.0000
vt 0.2167 0.0000 0.0000
vt 0.2167 0.0000 0.0000
vt 0.1533 0.0000 0.0000
vt 0.8467 0.0000 0.0000
vt 0.8467 0.0000 0.0000
vt 0.7833 0.0000 0.0000
vt 0.7833 0.0000 0.0000
vt 0.2167 0.0000 0.0000
vt 0.2167 0.0000 0.0000
vt 0.1533 0.0000 0.0000
vt 0.1533 0.0000 0.0000
vt 0.8467 1.0000 0.0000
vt 0.8467 0.0000 0.0000
vt 0.1533 1.0000 0.0000
vt 0.1533 0.0000 0.0000
vt 0.8467 1.0000 0.0000
vt 0.1533 1.0000 0.0000
vt 0.1533 1.0000 0.0000
vt 0.8467 1.0000 0.0000
vt 0.7833 1.0000 0.0000
vt 0.7833 0.0000 0.0000
vt 0.2167 1.0000 0.0000
vt 0.2167 0.0000 0.0000
vt 0.7833 1.0000 0.0000
vt 0.2167 1.0000 0.0000
vt 0.2167 1.0000 0.0000
vt 0.7833 1.0000 0.0000
vt 0.7833 1.0000 0.0000
vt 0.7833 0.0000 0.0000
vt 0.2167 1.0000 0.0000
vt 0.2167 0.0000 0.0000
vt 0.7833 1.0000 0.0000
vt 0.2167 1.0000 0.0000
vt 0.2167 1.0000 0.0000
vt 0.7833 1.0000 0.0000
vt 0.1533 1.0000 0.0000
vt 0.1533 0.0000 0.0000
vt 0.8467 1.0000 0.0000
vt 0.8467 0.0000 0.0000
vt 0.8467 1.0000 0.0000
vt 0.1533 1.0000 0.0000
vt 0.1533 1.0000 0.0000
vt 0.8467 1.0000 0.0000
# 152 texture coords

g piquet
usemtl 01___Default
f 75/131/1 16/36/2 17/38/3 15/129/4 
f 19/42/5 20/133/6 76/135/7 18/40/8 
f 16/35/9 19/41/10 18/39/11 17/37/12 
f 2/4/13 4/10/14 8/20/15 6/16/16 
f 15/130/17 76/136/18 20/134/19 75/132/20 
f 3/7/21 1/2/22 5/13/23 7/18/24 
f 4/9/25 2/4/26 9/24/27 74/123/28 
f 1/2/29 3/6/30 73/121/31 10/26/32 
f 6/15/33 8/20/34 13/125/35 12/30/36 
f 7/18/37 5/12/38 11/28/39 14/127/40 
f 2/3/41 6/14/42 12/29/43 9/23/44 
f 5/11/45 1/1/46 10/25/47 11/27/48 
f 3/5/49 7/17/50 14/128/51 73/122/52 
f 8/19/53 4/8/54 74/124/55 13/126/56 
f 74/123/57 9/24/58 16/36/59 75/131/60 
f 10/26/61 73/121/62 15/129/63 17/38/64 
f 12/30/65 13/125/66 20/133/67 19/42/68 
f 14/127/69 11/28/70 18/40/71 76/135/72 
f 9/23/73 12/29/74 19/41/75 16/35/76 
f 11/27/77 10/25/78 17/37/79 18/39/80 
f 42/90/81 43/91/82 44/92/83 41/89/84 
f 46/94/85 47/95/86 48/96/87 45/93/88 
f 77/139/89 22/48/90 23/50/91 21/137/92 
f 25/54/93 26/141/94 27/143/95 24/52/96 
f 22/47/97 25/53/98 24/51/99 23/49/100 
f 28/58/101 29/61/102 30/63/103 31/66/104 
f 21/138/105 27/144/106 26/142/107 77/140/108 
f 32/69/109 33/71/110 34/74/111 35/76/112 
f 29/60/113 28/58/114 36/79/115 78/145/116 
f 33/71/117 32/68/118 79/147/119 37/81/120 
f 31/65/121 30/63/122 80/149/123 38/84/124 
f 35/76/125 34/73/126 40/88/127 39/151/128 
f 28/57/129 31/64/130 38/83/131 36/78/132 
f 34/72/133 33/70/134 37/80/135 40/87/136 
f 32/67/137 35/75/138 39/152/139 79/148/140 
f 30/62/141 29/59/142 78/146/143 80/150/144 
f 78/145/145 36/79/146 22/48/147 77/139/148 
f 37/81/149 79/147/150 21/137/151 23/50/152 
f 38/84/153 80/149/154 26/141/155 25/54/156 
f 39/151/157 40/88/158 24/52/159 27/143/160 
f 36/78/161 38/83/162 25/53/163 22/47/164 
f 40/87/165 37/80/166 23/49/167 24/51/168 
f 57/105/169 58/106/170 59/107/171 60/108/172 
f 73/21/173 14/32/174 43/91/175 42/90/176 
f 49/97/177 50/98/178 51/99/179 52/100/180 
f 76/44/181 15/33/182 41/89/183 44/92/184 
f 53/101/185 54/102/186 55/103/187 56/104/188 
f 13/31/189 74/22/190 47/95/191 46/94/192 
f 61/109/193 62/110/194 63/111/195 64/112/196 
f 75/34/197 20/43/198 45/93/199 48/96/200 
f 14/32/201 76/44/202 50/98/203 49/97/204 
f 76/44/205 44/92/206 51/99/207 50/98/208 
f 44/92/209 43/91/210 52/100/211 51/99/212 
f 43/91/213 14/32/214 49/97/215 52/100/216 
f 20/43/217 13/31/218 54/102/219 53/101/220 
f 13/31/221 46/94/222 55/103/223 54/102/224 
f 46/94/225 45/93/226 56/104/227 55/103/228 
f 45/93/229 20/43/230 53/101/231 56/104/232 
f 66/114/233 79/82/234 39/86/235 65/113/236 
f 68/116/237 66/114/238 65/113/239 67/115/240 
f 21/45/241 68/116/242 67/115/243 27/56/244 
f 70/118/245 77/46/246 26/55/247 69/117/248 
f 72/120/249 70/118/250 69/117/251 71/119/252 
f 78/77/253 72/120/254 71/119/255 80/85/256 
f 58/106/257 57/105/258 21/45/259 79/82/260 
f 15/33/261 73/21/262 39/86/263 27/56/264 
f 59/107/265 58/106/266 79/82/267 66/114/268 
f 73/21/269 42/90/270 65/113/271 39/86/272 
f 60/108/273 59/107/274 66/114/275 68/116/276 
f 42/90/277 41/89/278 67/115/279 65/113/280 
f 57/105/281 60/108/282 68/116/283 21/45/284 
f 41/89/285 15/33/286 27/56/287 67/115/288 
f 62/110/289 61/109/290 78/77/291 77/46/292 
f 74/22/293 75/34/294 26/55/295 80/85/296 
f 63/111/297 62/110/298 77/46/299 70/118/300 
f 75/34/301 48/96/302 69/117/303 26/55/304 
f 64/112/305 63/111/306 70/118/307 72/120/308 
f 48/96/309 47/95/310 71/119/311 69/117/312 
f 61/109/313 64/112/314 72/120/315 78/77/316 
f 47/95/317 74/22/318 80/85/319 71/119/320 
# 80 polygons

